<?xml version="1.0" encoding="UTF-8" standalone="no"?>
<!-- Created with Inkscape (http://www.inkscape.org/) -->

<svg
   width="250"
   height="250"
   viewBox="0 0 66.145833 66.145833"
   version="1.1"
   id="svg1"
   xml:space="preserve"
   xmlns="http://www.w3.org/2000/svg"
   xmlns:svg="http://www.w3.org/2000/svg"
   xmlns:rdf="http://www.w3.org/1999/02/22-rdf-syntax-ns#"
   xmlns:cc="http://creativecommons.org/ns#"
   xmlns:dc="http://purl.org/dc/elements/1.1/"><title
     id="title27">Adamjee Cantonment College - আদমজী ক্যান্টনমেন্ট কলেজ</title><defs
     id="defs1" /><g
     id="layer1"><g
       id="g26"
       transform="matrix(0.23055556,0,0,0.23055556,0.13228944,0.13229062)"><path
         d="m 2.3457324,142.875 c 0,-77.611975 62.9172846,-140.5292779 140.5292476,-140.5292779 77.61196,0 140.5293,62.9173029 140.5293,140.5292779 0,77.61198 -62.91734,140.52928 -140.5293,140.52928 -77.611963,0 -140.5292476,-62.9173 -140.5292476,-140.52928 z"
         fill="#4472c4"
         fill-rule="evenodd"
         id="path955"
         style="fill:#e40025;fill-opacity:1;stroke:#087cbc;stroke-width:4.69145;stroke-miterlimit:4;stroke-dasharray:none;stroke-opacity:1" /><path
         d="m 49.758439,142.875 c 0,-51.426722 41.689828,-93.116552 93.116541,-93.116552 51.42677,0 93.1166,41.68983 93.1166,93.116552 0,51.42673 -41.68983,93.11655 -93.1166,93.11655 -51.426713,0 -93.116541,-41.68982 -93.116541,-93.11655 z"
         fill="#4472c4"
         fill-rule="evenodd"
         id="path7807"
         style="fill:#00a038;fill-opacity:1;stroke:#ffffff;stroke-width:2.34572;stroke-miterlimit:4;stroke-dasharray:none;stroke-opacity:1" /><path
         d="m 75.897097,142.875 c 0,-36.99078 29.987123,-66.977914 66.977883,-66.977914 36.99087,0 66.97794,29.987134 66.97794,66.977914 0,36.99079 -29.98712,66.97791 -66.97794,66.97791 -36.99076,0 -66.977883,-29.98712 -66.977883,-66.97791 z"
         fill="#4472c4"
         fill-rule="evenodd"
         id="path10870"
         style="fill:#3f0e7d;fill-opacity:1;stroke:#ffffff;stroke-width:2.34572;stroke-miterlimit:4;stroke-dasharray:none;stroke-opacity:1" /><path
         id="path46329"
         style="fill:#fffff4;fill-opacity:1;fill-rule:evenodd;stroke-width:0.248255"
         d="m 135.23206,16.237252 c -1.46469,0.06765 -3.05808,0.369526 -4.73615,0.965316 -1.82983,0.649732 -3.75862,1.648776 -5.70301,3.068029 0.48407,0.675733 0.96191,1.353927 1.43299,2.035018 1.08043,-0.823545 2.69409,-1.72118 4.53615,-2.399853 1.95948,-0.721854 4.11803,-1.17181 6.01876,-1.047482 2.71005,0.177043 4.77292,1.528532 4.80591,4.771285 -1.5225,0.01649 -3.04473,0.06217 -4.5651,0.136943 -1.94881,0.09563 -3.89505,0.238808 -5.83685,0.429948 -1.94197,0.191268 -3.87922,0.430428 -5.80947,0.716752 -1.93021,0.286291 -3.85324,0.619798 -5.76709,1.000456 -1.91372,0.380698 -3.81801,0.80847 -5.71076,1.282609 -1.89287,0.474129 -3.77421,0.994713 -5.64152,1.561145 -1.86733,0.566548 -3.72052,1.179086 -5.5578,1.83658 -1.837,0.657264 -3.658116,1.359216 -5.460644,2.105815 -1.802792,0.746669 -3.587134,1.537731 -5.351095,2.371948 -1.764096,0.834341 -3.507581,1.711978 -5.228621,2.631881 -1.720897,0.919901 -3.419028,1.881864 -5.092713,2.885095 -1.673561,1.003144 -3.322589,2.047537 -4.944918,3.131592 -1.622484,1.084019 -3.218406,2.207999 -4.785754,3.370337 -0.116592,0.08647 -0.233058,0.173035 -0.349333,0.259932 l 1.596802,2.136304 c 0.113674,-0.08495 0.227081,-0.16971 0.341065,-0.254248 1.532292,-1.136339 3.092583,-2.235114 4.678784,-3.29489 1.586065,-1.059823 3.198175,-2.080587 4.83433,-3.061311 0.465395,-0.278965 0.93274,-0.554902 1.401982,-0.82734 l 0.473356,0.814937 c -0.32191,0.51494 -0.641153,1.029412 -0.956531,1.544609 -1.108413,1.810701 -2.166466,3.625215 -3.115572,5.476151 -0.877706,1.711502 -1.65988,3.449823 -2.297018,5.230689 0.912637,0.721033 1.818423,1.448452 2.717147,2.182812 1.058153,-0.763021 2.299209,-1.202516 3.625619,-1.358573 2.158688,-0.254126 4.505233,0.242281 6.731372,1.251086 1.042105,0.472318 2.051911,1.053533 3.006535,1.716691 0.733626,-0.42247 1.472491,-0.835079 2.216919,-1.238167 L 89.20024,43.743583 c 0.182263,-0.09869 0.361651,-0.191047 0.537952,-0.277502 2.944584,-1.44386 4.993727,-1.207715 6.06888,-0.104387 0.233823,0.239951 0.424584,0.521823 0.574125,0.839226 0.155413,0.329864 0.240212,0.640457 0.264067,0.932759 0.116607,1.428668 -1.212844,2.421291 -2.949174,3.18947 l 1.362707,2.619995 c 1.210534,-0.629598 2.342481,-1.466973 3.172416,-2.456181 1.238055,-1.475533 1.850077,-3.35085 0.943612,-5.421375 -0.848654,-1.938486 -2.758827,-2.965471 -5.017265,-3.192053 -1.914042,-0.191985 -4.015252,0.200433 -5.789827,1.028878 -0.189246,0.08835 -0.374582,0.181359 -0.555005,0.279053 l -0.450102,-0.830957 c 0.183493,-0.09936 0.367363,-0.198253 0.551388,-0.296623 1.682546,-0.899329 3.387189,-1.757288 5.111832,-2.57297 1.724533,-0.81557 3.469237,-1.588746 5.231722,-2.318721 1.049408,-0.43466 2.105072,-0.854001 3.166732,-1.257805 -1.31972,3.868069 -0.0823,6.61858 3.1595,9.684681 4.0745,3.853713 4.1252,5.683679 0.58497,8.027933 l 1.00253,2.426209 c 1.89465,-1.034492 3.10903,-2.019941 3.82767,-3.045292 1.99116,-2.841491 0.004,-5.853553 -2.53473,-8.644434 -0.33927,-0.37615 -0.65174,-0.729191 -0.93948,-1.065568 -2.22457,-2.600683 -2.89683,-4.174976 -2.36781,-6.61665 0.12979,-0.599062 0.33266,-1.251185 0.6041,-1.978174 1.41383,-0.489127 2.83684,-0.951092 4.26847,-1.385445 0.35972,-0.109118 0.72032,-0.216313 1.08107,-0.321944 l 5.52266,18.859314 c 0.89998,-0.263519 1.80371,-0.514087 2.71095,-0.751376 l -4.97283,-19.011759 c 0.39071,-0.102193 0.78182,-0.202113 1.17358,-0.30024 1.85042,-0.46354 3.71217,-0.881999 5.58312,-1.254187 1.87105,-0.372148 3.75136,-0.698345 5.63841,-0.978235 0.33249,-0.04932 0.66498,-0.09722 0.99788,-0.143661 l 0.88986,6.379456 c -0.36283,-0.312577 -0.72562,-0.588414 -1.08623,-0.829924 -2.13689,-1.431085 -4.18613,-1.649551 -5.79397,-1.179256 -2.56943,0.751661 -3.95861,3.240213 -3.44888,5.350061 0.68767,2.846358 2.9957,3.829032 5.17953,3.349667 0.73164,-0.160575 1.45731,-0.48902 2.1177,-0.977719 -0.51317,-0.77095 -1.03459,-1.538381 -1.56477,-2.302185 -0.39286,0.317492 -0.75752,0.503244 -1.08882,0.584978 -1.70835,0.421526 -2.79464,-2.234413 -0.68058,-3.420463 0.28901,-0.16213 0.63732,-0.290291 1.04904,-0.367937 1.34102,-0.252904 2.92044,0.305369 4.63744,1.702222 0.35517,0.288945 0.7163,0.613758 1.0821,0.974618 l 1.42266,10.199377 c 0.82881,-0.08799 1.51569,-0.160166 2.11563,-0.230477 0.61747,-0.07236 1.2079,-0.156085 1.77457,-0.250631 1.80214,-0.300538 3.35111,-0.711994 4.70307,-1.224214 2.03973,-0.772758 3.61241,-1.771298 4.80126,-2.886129 2.00757,-1.882593 2.91128,-4.091916 2.96157,-5.898865 0.0872,-3.131205 -1.16664,-4.763265 -2.96157,-5.467366 -1.70282,-0.667968 -3.79853,-0.456322 -5.49734,0.07441 -1.23507,0.385722 -2.24062,0.932183 -2.75487,1.394747 0.49683,0.854381 0.98341,1.711669 1.45986,2.572453 0.48171,-0.290513 0.96915,-0.553749 1.45159,-0.777214 2.72839,-1.264005 5.16609,-1.196534 5.17177,2.368331 0.002,1.30928 -1.2128,4.035333 -4.77748,5.659086 -1.28443,0.585085 -2.86263,1.031347 -4.84467,1.271757 -0.3752,0.04554 -0.76474,0.08369 -1.16943,0.114205 l -1.83142,-16.597437 c 0.45436,-0.05015 0.90882,-0.0973 1.36374,-0.14211 1.89842,-0.186867 3.80135,-0.327149 5.70663,-0.420646 1.90547,-0.09371 3.81346,-0.141075 5.72162,-0.141077 1.90814,2e-6 3.81614,0.04736 5.72161,0.141077 1.90529,0.09349 3.80822,0.233779 5.70663,0.420646 1.89854,0.186991 3.79268,0.420293 5.67976,0.700216 1.88705,0.27989 3.76685,0.606087 5.63789,0.978235 0.13445,0.02675 0.26924,0.05391 0.4036,0.08113 l -2.36265,11.66182 c -0.0814,-0.210988 -0.16594,-0.417948 -0.25321,-0.620634 -1.05852,-2.458125 -2.54526,-4.302071 -4.40594,-5.491137 -1.2878,-0.823012 -2.75125,-1.328751 -4.35632,-1.500167 -0.30901,-0.033 -0.61321,-0.04409 -0.91157,-0.03411 -3.1079,0.104157 -5.44352,2.470288 -5.7087,5.421892 -0.008,0.08818 -0.0142,0.176926 -0.0186,0.266133 -0.005,0.09789 -0.008,0.194381 -0.009,0.289905 -0.0408,3.457006 2.24566,5.390651 4.55942,5.971728 1.25889,0.316275 2.58316,0.25494 3.66851,-0.19482 -0.15206,-0.973154 -0.31232,-1.946364 -0.48059,-2.919201 -1.12412,0.328742 -2.10302,0.264289 -2.87425,-0.0739 -1.15022,-0.504252 -1.85573,-1.634254 -1.75131,-2.957442 0.10798,-1.368242 1.09585,-2.275536 2.2965,-2.579687 0.41616,-0.105406 0.85448,-0.136659 1.28261,-0.0894 1.21688,0.134324 2.56288,0.853932 3.7822,1.909445 2.05135,1.775708 3.63232,4.392979 3.99148,6.683829 0.10229,0.652403 0.10399,1.271658 -0.009,1.828312 l -0.3421,1.687753 c 0.91974,0.186342 1.83677,0.385951 2.75074,0.59893 l 4.45967,-19.138367 c 0.62504,0.145649 1.24865,0.296216 1.87121,0.452169 1.85052,0.463525 3.68987,0.972755 5.51542,1.526522 0.56205,0.170524 1.12267,0.344999 1.68207,0.523999 -0.73838,0.252052 -1.44328,0.550918 -2.11098,0.890384 -3.63915,1.85031 -6.07174,4.852438 -6.90707,8.069275 -1.25418,4.829769 -0.10533,7.878863 1.52755,9.663493 1.23887,1.354063 2.84095,2.095444 4.15789,2.445846 0.89029,0.236823 1.65923,0.296476 2.09083,0.225826 l 1.12758,-2.951758 c -0.76398,0.129893 -1.52799,0.13498 -2.24638,0.0098 -1.8083,-0.315156 -3.36332,-1.46487 -3.9486,-3.624068 -0.36842,-1.359199 -0.35715,-3.153691 0.28629,-5.371248 0.39768,-1.370565 1.28907,-2.688259 2.50373,-3.826123 1.86721,-1.749116 4.44371,-3.020589 6.9789,-3.444751 0.7251,-0.121359 1.43904,-0.171987 2.11925,-0.144694 0.42367,0.159614 0.84636,0.321737 1.26814,0.486275 l -0.86403,2.215369 c 0.37658,0.146907 0.89418,0.307595 1.51928,0.561723 0.24112,0.09802 0.46949,0.198306 0.68627,0.300756 4.16183,1.966801 3.91059,4.488067 3.51813,5.672006 -0.10104,0.304813 -0.21317,0.52836 -0.26613,0.640271 -0.01,-0.0057 -0.0194,-0.01091 -0.0289,-0.01654 -1.75291,-1.034713 -3.79903,-1.293043 -5.53042,-0.724503 -1.51329,0.496868 -2.75406,1.608718 -3.43131,3.332096 -0.4719,1.20083 -0.47966,2.968027 0.19275,4.487581 0.63054,1.425172 1.84631,2.6299 3.95325,3.08715 0.74329,0.161311 1.5988,0.231227 2.59106,0.192753 0.17236,-0.96914 0.33709,-1.940438 0.49402,-2.91455 -0.67186,-0.01454 -1.23874,-0.07057 -1.72134,-0.161231 -3.43002,-0.644332 -2.59144,-3.19703 -2.43499,-3.561023 0.66946,-1.557589 2.91367,-1.827095 4.53047,-1.064017 0.0249,0.01173 0.0494,0.0237 0.0744,0.03617 1.30878,0.653973 2.71393,2.28741 3.69952,4.194576 1.28643,2.48938 1.79004,5.307557 0.84026,6.923608 l -1.08004,1.838648 c 0.24087,0.141566 0.48074,0.28424 0.72037,0.427881 0.56477,0.338531 1.12635,0.683023 1.68414,1.033012 L 204.83866,44.11617 c 0.9451,0.593003 1.88144,1.199119 2.80913,1.819011 1.58624,1.059801 3.14647,2.158526 4.67878,3.294889 1.07522,0.797457 2.13668,1.613905 3.18379,2.447913 l -4.01268,5.037935 c -0.085,-1.768051 -0.38839,-3.328287 -1.31206,-4.598686 -0.34586,-0.475643 -0.77929,-0.910663 -1.31982,-1.298112 -1.33142,-0.954362 -2.58992,-1.29522 -3.66541,-1.220597 -2.88346,0.199956 -4.43974,3.321113 -3.82508,5.724715 0.37921,1.48287 1.55941,2.719493 3.89381,3.130042 0.20565,-0.902985 0.40295,-1.809856 0.5917,-2.720248 -3.83507,-0.507321 -1.14379,-4.870462 1.82521,-2.729549 0.39192,0.282612 0.73034,0.656571 1.01183,1.119828 0.6784,1.116622 1.02564,2.752869 0.98547,4.871021 l -6.41563,8.055322 c 0.39825,0.339167 0.75158,0.640313 1.08158,0.919324 0.19263,0.162844 0.37301,0.314524 0.54261,0.455786 1.13998,0.94951 2.22365,1.748176 3.27008,2.416907 1.61145,1.030139 3.12246,1.742859 4.55114,2.195215 2.80747,0.888457 5.28717,0.759328 7.22954,-0.01189 0.84915,-0.337169 1.5894,-0.795846 2.19521,-1.33997 0.84186,-0.756132 1.41374,-1.505981 1.76424,-2.248958 1.06927,-2.266848 0.0412,-4.417721 -1.59009,-5.998084 -1.65781,-1.606536 -3.84624,-2.545416 -4.99504,-2.636015 -0.27742,0.948545 -0.56433,1.892148 -0.86041,2.830319 1.54173,0.424287 2.95529,1.031983 3.82767,1.833479 1.15805,1.063641 1.31531,2.411054 -0.42065,4.064869 -0.71231,0.678611 -2.4466,1.397579 -4.76663,1.122412 -1.45888,-0.173196 -3.14082,-0.737703 -5.00435,-1.941484 -0.87958,-0.568017 -1.79754,-1.27565 -2.7683,-2.154907 L 218.0978,53.7993 c 1.04016,0.878334 2.06494,1.775012 3.07371,2.689242 1.41341,1.281214 2.79512,2.597006 4.14394,3.946012 1.34901,1.348823 2.6648,2.73054 3.94601,4.143933 0.61707,0.680883 1.22596,1.369198 1.82676,2.064474 l 2.01796,-1.743563 c -0.61453,-0.711187 -1.23743,-1.415029 -1.86861,-2.111499 -0.12514,-0.138042 -0.25043,-0.275959 -0.37621,-0.413412 2.04432,-1.870456 2.82262,-5.197266 1.19269,-8.67854 -0.77489,-1.655596 -2.09398,-3.321595 -4.03076,-4.767667 -1.52045,-1.13501 -3.42115,-2.132007 -5.70508,-2.855123 -0.93303,-0.295426 -1.92954,-0.545033 -2.98845,-0.738456 -0.15664,0.816342 -0.31991,1.630057 -0.48937,2.440677 0.52198,0.07329 1.11795,0.204374 1.75855,0.392741 1.77462,0.521788 3.84182,1.464456 5.62343,2.747119 1.89904,1.367479 3.40163,3.07664 3.75584,4.856552 0.27208,1.366424 -0.13732,2.740342 -1.52084,4.051949 -0.41556,-0.428168 -0.8343,-0.85297 -1.25625,-1.274858 -1.37966,-1.37985 -2.79328,-2.725928 -4.23902,-4.036446 -1.44589,-1.31038 -2.92385,-2.585161 -4.43229,-3.823023 -1.5084,-1.237947 -3.04687,-2.438897 -4.61418,-3.60133 -1.56739,-1.162362 -3.16323,-2.286289 -4.78576,-3.370337 -1.62236,-1.084076 -3.27131,-2.127903 -4.94492,-3.131075 -1.67372,-1.003251 -3.37228,-1.965686 -5.09323,-2.885612 -1.72107,-0.919922 -3.46447,-1.797518 -5.22862,-2.631881 -1.764,-0.834234 -3.54877,-1.625259 -5.35161,-2.371948 -1.80257,-0.746616 -3.62307,-1.449053 -5.46013,-2.106331 -1.83732,-0.657511 -3.69092,-1.269502 -5.55832,-1.836064 -1.86735,-0.566445 -3.74861,-1.08752 -5.64151,-1.561662 -1.8928,-0.474149 -3.79699,-0.901383 -5.71077,-1.282092 -1.91388,-0.380667 -3.83736,-0.714675 -5.7676,-1.000973 -1.93029,-0.286329 -3.86745,-0.524963 -5.80947,-0.716235 -1.94183,-0.191144 -3.88849,-0.334831 -5.83737,-0.430465 -1.2108,-0.05955 -2.42212,-0.100388 -3.6344,-0.12299 0.0327,-1.753779 -0.71482,-3.551276 -2.21795,-4.946468 -1.43139,-1.328575 -3.54975,-2.289816 -6.22185,-2.448429 -0.45803,-0.02722 -0.93184,-0.03082 -1.42006,-0.0083 z m 55.83431,20.478336 c 0.55369,0.251326 1.10551,0.50692 1.6552,0.766879 1.72462,0.815669 3.42931,1.673657 5.11183,2.572969 1.38604,0.740903 2.75696,1.509994 4.1119,2.306319 l -6.07095,10.329086 c -0.43866,-2.256948 -1.08811,-4.083749 -1.88154,-5.450314 -0.35237,-0.606878 -0.73384,-1.124046 -1.13895,-1.549776 1.12093,-2.179637 1.00529,-4.613614 -0.57877,-7.264156 -0.33628,-0.562653 -0.73872,-1.133966 -1.20872,-1.711007 z m -104.537285,8.948291 5.472534,9.440768 c -0.724496,-0.255116 -1.455536,-0.51537 -2.190563,-0.759127 -2.076615,-0.688566 -4.219641,-1.256235 -6.441985,-1.218013 0.345209,-2.356751 1.057823,-4.378532 2.09703,-6.03064 0.323413,-0.514163 0.677969,-0.992132 1.062984,-1.432988 z m -30.596582,7.220232 c -0.87082,-0.01439 -1.799947,0.07647 -2.766756,0.283703 -1.713891,0.367211 -3.524914,1.099376 -5.280298,2.238106 -0.288148,0.186924 -0.576014,0.385041 -0.862479,0.595313 -1.552771,1.140046 -3.071369,2.641441 -4.366142,4.628141 -1.070908,1.643119 -1.99017,3.622764 -2.622062,5.975346 -0.546233,2.034044 -0.879246,4.354851 -0.89607,6.957198 -0.0019,0.295609 3.16e-4,0.595222 0.0067,0.898137 0.373006,-0.05074 0.745916,-0.09966 1.118278,-0.146762 0.597641,-0.07562 1.194196,-0.14664 1.790072,-0.212906 -0.01822,-2.02399 0.191529,-3.886752 0.571541,-5.574337 0.522943,-2.321817 1.367289,-4.310627 2.389518,-5.961393 1.23274,-1.990823 2.720505,-3.486426 4.245736,-4.535124 2.424879,-1.666844 4.930286,-2.196192 6.816638,-1.950785 1.515724,0.197119 2.638391,0.886106 3.089217,1.859834 -0.206407,0.203449 -0.412095,0.407417 -0.617016,0.612366 -1.379835,1.379635 -2.725969,2.793329 -4.036446,4.239018 -1.31035,1.445852 -2.585189,2.923878 -3.823023,4.432287 -1.237893,1.508352 -2.438918,3.046891 -3.60133,4.614189 -1.16233,1.567341 -2.285805,3.163282 -3.369821,4.785754 -1.08407,1.622347 -2.128456,3.270857 -3.131591,4.944401 -1.00322,1.673676 -1.965193,3.372331 -2.885096,5.09323 -0.919906,1.721035 -1.797541,3.464534 -2.63188,5.228621 -0.834217,1.763958 -1.62528,3.548291 -2.371948,5.351095 -0.746598,1.802521 -1.449072,3.623137 -2.106332,5.460127 -0.657491,1.83728 -1.269517,3.69097 -1.836063,5.55832 -0.56643,1.8673 -1.087017,3.74813 -1.561146,5.641 -0.474132,1.89273 -0.901909,3.79703 -1.282609,5.71076 -0.380652,1.91383 -0.714163,3.8374 -1.000455,5.76761 -0.286323,1.93024 -0.52549,3.8675 -0.716752,5.80946 -0.191143,1.94182 -0.334308,3.88811 -0.429948,5.83686 -0.09588,1.94899 -0.144177,3.90053 -0.144178,5.85235 2e-6,1.95187 0.04831,3.90341 0.144178,5.85236 0.09564,1.94876 0.238805,3.89503 0.429948,5.83685 0.191262,1.94198 0.430429,3.87923 0.716752,5.80947 0.286292,1.93021 0.619802,3.85326 1.000455,5.76709 0.161483,0.81175 0.331184,1.62161 0.50953,2.42982 l 2.604492,-0.57464 c -0.174355,-0.79012 -0.340809,-1.58199 -0.498677,-2.37556 -0.37214,-1.87102 -0.698347,-3.75088 -0.978235,-5.6379 -0.279918,-1.88705 -0.513233,-3.78124 -0.700216,-5.67976 -0.186867,-1.89839 -0.327143,-3.80141 -0.420646,-5.70663 -0.09372,-1.90547 -0.140559,-3.81299 -0.14056,-5.7211 0,-0.0918 -2.17e-4,-0.18364 0,-0.27543 l 14.278715,0.0336 c -0.130376,0.075 -0.253666,0.15599 -0.371037,0.24184 -0.829519,0.60675 -1.352665,1.46291 -1.901176,2.30891 -4.566306,0.0858 -7.702944,1.11466 -9.390124,3.29075 -1.06562,1.37427 -1.523795,3.19066 -1.314649,5.38675 0.01158,0.12156 0.02585,0.24303 0.04237,0.36432 0.303565,2.22739 1.426873,4.32741 3.091801,5.28598 0.789574,0.45461 1.691176,0.64735 2.680973,0.49248 0.542156,-0.0848 1.630885,-0.47516 2.497522,-1.2609 0.994272,-0.90149 1.672535,-2.28418 0.974101,-4.40129 -0.905285,-0.23115 -1.810135,-0.47028 -2.714046,-0.71778 0.175737,0.40707 0.827034,2.89781 -1.172538,3.15071 -1.46296,0.18503 -2.57772,-1.02099 -2.895431,-2.79156 -0.0277,-0.15442 -0.04934,-0.3129 -0.0646,-0.47491 -0.295255,-3.13544 1.988543,-5.02845 4.921146,-5.33094 0.148345,-0.0153 0.298421,-0.0267 0.450102,-0.0341 0.12894,-0.006 0.258678,-0.009 0.389123,-0.007 2.814861,0.0329 5.88301,1.76487 6.15208,4.53823 0.0046,0.0469 0.0084,0.0941 0.01188,0.14107 0.130659,1.73688 -0.433121,3.54278 -1.405599,5.23844 -1.362813,2.37626 -3.594746,4.63345 -5.916434,5.86734 0.183904,0.12574 0.368107,0.2509 0.552421,0.37518 0.556417,0.37514 1.114341,0.7435 1.674316,1.10535 0.855351,-0.595 1.669142,-1.23982 2.424142,-1.92081 1.948556,-1.75758 3.531393,-3.77622 4.460192,-5.90041 0.698436,-1.59738 1.038296,-3.27109 0.905372,-5.03019 -0.0052,-0.069 -0.0109,-0.13798 -0.01757,-0.20722 -0.148037,-1.53727 -0.864069,-3.25972 -2.08101,-4.53874 -0.445577,-0.46834 -0.961534,-0.88041 -1.546159,-1.20148 0.590113,-1.32111 1.998987,-2.95498 3.466972,-3.72794 0.502179,-0.26443 1.003684,-0.42363 1.469161,-0.43408 0.0039,-0.86973 0.01964,-1.73997 0.04702,-2.60966 l -19.641695,-0.61753 c 0.02163,-0.68708 0.04943,-1.37378 0.0832,-2.06034 0.05329,-1.08578 0.121529,-2.17071 0.205155,-3.25458 l 19.59312,1.51257 c 0.05248,-0.68022 0.112498,-1.36028 0.179317,-2.03916 0.02512,-0.25503 0.05089,-0.50997 0.07803,-0.76481 L 26.94302,130.5282 c 0.129682,-1.2176 0.27851,-2.43338 0.446485,-3.64629 l 11.055139,1.53117 c 0.375184,-0.29031 0.751115,-0.57742 1.128613,-0.86093 0.509476,-0.38263 1.021305,-0.7589 1.53479,-1.12913 -0.899718,-1.50046 -1.649924,-2.92319 -2.25981,-4.23953 -1.062623,-2.29359 -1.709458,-4.28428 -1.994711,-5.86476 -0.05102,-0.28267 -0.09092,-0.55282 -0.119372,-0.81029 1.183873,0.64934 2.363646,1.21363 3.554305,1.6707 1.5621,0.59968 3.130183,1.00961 4.736145,1.18649 1.617849,0.17822 3.260077,0.11896 4.968689,-0.21032 -0.162546,-0.77113 -0.315485,-1.54806 -0.458887,-2.33009 -4.978581,0.30061 -7.556865,-0.33029 -12.351184,-4.39353 -1.397643,0.57533 -2.792469,1.18357 -4.18269,1.82418 0.05363,0.70326 0.133941,1.42331 0.241329,2.15852 0.27532,1.88521 0.730214,3.87096 1.381827,5.92884 0.367063,1.15914 0.796654,2.34113 1.290878,3.53984 L 27.90269,123.5351 c 0.191398,-1.1379 0.399672,-2.27325 0.624768,-3.40496 0.372181,-1.87093 0.790658,-3.73273 1.254187,-5.58313 0.463517,-1.8505 0.972247,-3.68938 1.526005,-5.51491 0.18339,-0.60444 0.371634,-1.20728 0.564823,-1.80867 l 2.263945,0.72709 c 0.123628,-0.38485 0.255952,-0.90788 0.467155,-1.54875 0.25554,-0.76773 0.550147,-1.41534 0.86558,-1.95698 2.087335,-3.58478 4.973943,-2.58669 5.494755,-2.37815 -0.670094,1.29837 -0.934365,2.73096 -0.780831,4.06538 0.249085,2.16577 1.574765,3.99117 3.91604,4.74958 1.587233,0.51416 4.052579,0.21073 5.676656,-1.31723 1.020132,-0.95992 1.70552,-2.39473 1.729094,-4.53564 0.0046,-0.42031 -0.01611,-0.8679 -0.06408,-1.34617 -0.977873,-0.11274 -1.957986,-0.21767 -2.939872,-0.31471 -0.0024,0.14172 -0.0062,0.2789 -0.01189,0.41186 -0.214983,5.02692 -3.025056,4.11458 -3.448368,3.96255 -1.595592,-0.57303 -2.001772,-2.79663 -1.338937,-4.45709 0.15448,-0.38699 0.393898,-0.79157 0.701249,-1.19786 1.03955,-1.37419 2.81076,-2.715297 4.701005,-3.562058 2.026343,-0.907629 4.104154,-1.20952 5.448247,-0.526583 l 1.901176,0.965833 c 0.303876,-0.598066 0.613963,-1.192795 0.930175,-1.784387 0.126125,-0.235948 0.253293,-0.471515 0.381373,-0.706417 L 40.511222,87.06652 c 0.759172,-1.392354 1.546793,-2.769234 2.36213,-4.129464 0.98073,-1.636161 2.001982,-3.248237 3.061829,-4.83433 0.298732,-0.447121 0.600481,-0.891859 0.905371,-1.334802 0.261325,0.993011 0.593824,1.853272 0.97255,2.590023 1.541621,2.999069 3.857739,4.016024 5.777942,3.860746 1.932405,-0.156303 3.585112,-1.474587 4.18114,-3.45922 0.250495,-0.833961 0.319204,-1.795225 0.145728,-2.854606 1.880559,0.200334 3.988461,2.53816 3.304708,5.413623 -0.168237,0.707619 -0.503606,1.453524 -1.052133,2.231388 -0.529489,0.750869 -1.237074,1.296028 -2.072741,1.680001 -2.274041,1.044771 -5.610631,0.923331 -8.59069,0.244429 0.03323,0.166681 0.06676,0.333486 0.100769,0.499711 0.140601,0.687228 0.287532,1.370185 0.441316,2.049488 1.26702,0.183957 2.443917,0.294658 3.530018,0.330729 2.996494,0.09941 5.31427,-0.366758 7.015075,-1.456242 0.762679,-0.488598 1.404086,-1.103834 1.934766,-1.85415 0.473993,-0.670171 0.844018,-1.308358 1.123962,-1.92288 1.17767,-2.584851 0.747888,-4.773796 -0.367419,-6.562391 -1.404025,-2.25145 -3.817824,-3.730742 -5.251876,-4.309814 -0.396071,-0.159933 -0.706219,-0.246356 -0.88005,-0.258899 -0.64337,0.789128 -1.275704,1.587061 -1.897041,2.393652 0.33535,1.02132 0.360542,1.916381 0.178283,2.642733 -0.396055,1.57867 -1.801937,2.410435 -3.161564,1.922363 -1.357941,-0.487465 -2.712221,-2.305412 -2.594674,-6.191353 0.0084,-0.276876 0.02486,-0.564573 0.04961,-0.86248 2.090839,0.97549 4.730619,0.436274 7.032129,-0.690914 1.315975,-0.644571 2.555378,-1.498311 3.554305,-2.428275 2.606525,5.04465 6.21302,8.614049 11.030851,9.269202 0.05493,-0.281491 0.111124,-0.563018 0.168982,-0.84491 0.09353,-0.455342 0.191268,-0.911049 0.292488,-1.367358 -0.933838,-0.0698 -1.856933,-0.372086 -2.741951,-0.853178 -1.421262,-0.772633 -2.743736,-2.006508 -3.839042,-3.479375 -1.292205,-1.7377 -2.246458,-3.778387 -2.703194,-5.742285 -1.128735,-0.06113 -2.264256,-0.104643 -3.405477,-0.130741 -0.02575,0.04024 -0.07271,0.11202 -0.140043,0.209289 -0.509903,0.736784 -2.203017,2.970202 -4.515487,3.481442 -0.806584,0.178289 -1.704523,0.154272 -2.676322,-0.212907 0.319121,-0.399446 0.640448,-0.796443 0.964799,-1.191659 1.210139,-1.474666 2.456719,-2.919558 3.737756,-4.333069 1.281191,-1.413375 2.597014,-2.795649 3.946012,-4.144449 0.20032,-0.200348 0.40129,-0.399532 0.603064,-0.598414 l 13.737663,13.939201 c 0.676932,-0.667241 1.363587,-1.324399 2.059823,-1.971456 L 63.512402,57.46781 c 0.353188,-0.328232 0.708332,-0.654408 1.065568,-0.978235 0.345948,-0.313524 0.693661,-0.624966 1.043348,-0.93431 L 63.8545,53.557971 c -0.357689,0.316425 -0.71325,0.635312 -1.067118,0.956014 -0.376205,0.34102 -0.750601,0.68412 -1.122412,1.029911 -1.029619,-1.6276 -3.120006,-2.61663 -5.732467,-2.659785 z m 182.966097,19.275826 -2.14716,1.581298 c 1.05336,1.430476 2.0739,2.885419 3.0608,4.362525 1.05983,1.58608 2.08059,3.197671 3.06131,4.833813 0.41936,0.69963 0.83151,1.403747 1.2361,2.112016 l -0.81804,0.467672 c -0.77011,-0.488989 -1.53934,-0.971674 -2.31097,-1.444357 -1.80824,-1.107663 -3.62524,-2.156452 -5.48235,-3.086633 -1.44649,-0.724595 -2.91455,-1.375837 -4.41317,-1.923913 -0.72743,0.907548 -1.46128,1.808099 -2.20193,2.701643 0.6014,0.846499 0.99736,1.808007 1.20768,2.83497 0.41361,2.019105 0.10687,4.258966 -0.71366,6.428548 -0.5389,1.424661 -1.29356,2.806514 -2.19728,4.088122 0.39092,0.689999 0.77338,1.384759 1.14722,2.084111 0.0249,0.04664 0.0501,0.09336 0.0749,0.140043 l 13.97796,-7.441923 c 1.01434,2.36703 1.29727,4.211265 0.94258,5.469434 -0.2267,0.804084 -0.71397,1.370472 -1.44901,1.710489 -0.86541,0.400324 -1.57475,0.346909 -2.16679,-5.16e-4 -0.80742,-0.47378 -1.41053,-1.500949 -1.93684,-2.71353 l -2.62981,1.344104 c 0.34437,1.021395 0.93276,1.967041 1.68517,2.732133 1.53122,1.557145 3.83167,2.438324 6.16293,1.437122 2.20762,-0.948099 3.24729,-3.270063 3.28249,-5.904033 0.0249,-1.869328 -0.46045,-3.832438 -1.31879,-5.444629 l 0.83406,-0.4439 c 0.86667,1.627833 1.69459,3.276269 2.48305,4.943367 0.81558,1.724538 1.58875,3.468713 2.31873,5.231206 0.72991,1.762281 1.41672,3.542721 2.0593,5.338691 0.14726,0.41151 0.29197,0.82348 0.4346,1.23662 -0.46106,-0.32513 -0.93364,-0.62038 -1.41438,-0.88625 -3.76941,-2.08474 -7.91867,-2.29618 -11.1616,-0.971 -4.5781,1.87078 -6.45771,4.86272 -6.91069,7.43779 -0.31087,1.76723 0.0127,3.46042 0.65888,4.74079 0.28634,0.56748 0.63808,1.05728 1.02939,1.43402 l 3.03909,-0.86454 c -0.40615,-0.31642 -0.83125,-0.82526 -1.17719,-1.44643 -0.75662,-1.35848 -1.1508,-3.27293 -0.1173,-5.09219 0.71332,-1.25569 2.13965,-2.51675 4.65036,-3.46077 1.55349,-0.58411 3.49239,-0.60911 5.4622,-0.15762 2.50164,0.57334 4.97705,1.89998 6.69158,3.64836 0.39113,0.39889 0.73902,0.81677 1.03456,1.24695 0.39195,1.3543 0.75918,2.71532 1.10175,4.08296 0.46352,1.85041 0.88199,3.71268 1.25418,5.58364 0.37215,1.87103 0.69834,3.75084 0.97824,5.63789 0.27992,1.88708 0.51323,3.78121 0.70021,5.67976 0.0413,0.41947 0.0806,0.83895 0.11731,1.25884 l -7.47913,0.65474 c 0.50068,-0.2548 1.01581,-0.71592 1.38544,-1.32498 0.80763,-1.33089 0.91678,-3.4246 -1.4242,-5.27462 -0.50629,-0.40012 -1.12612,-0.78633 -1.87585,-1.14515 1.51874,-1.31579 2.29063,-2.81256 2.29701,-4.43229 0.001,-0.37606 -0.0381,-0.75856 -0.11937,-1.14618 -0.36212,-1.72706 -1.18849,-3.02011 -2.24069,-3.88658 -3.41018,-2.80832 -8.87368,-1.11278 -10.55078,2.64273 -0.61112,1.36866 -0.7498,3.02393 -0.18706,4.99504 0.009,0.0318 0.0185,0.0642 0.0279,0.0961 1.06902,0.11822 2.1384,0.24668 3.20807,0.38551 -0.14574,-0.37115 -0.25882,-0.72294 -0.34261,-1.05679 -1.43597,-5.72021 6.21218,-6.6442 7.0652,-2.5833 0.0857,0.40823 0.0583,0.80915 -0.0548,1.18856 -0.41231,1.38343 -1.9417,2.43999 -3.28972,2.68149 0.18378,1.0259 0.35249,2.05467 0.5054,3.0856 0.0113,0.076 0.0225,0.15184 0.0336,0.22789 1.40025,-0.20453 3.93059,0.73912 4.13153,2.4474 0.0971,0.82588 -0.12535,1.53587 -0.65991,2.11666 -0.94713,1.02903 -2.84328,1.63619 -5.69836,1.87999 l -4.29069,0.36639 c 0.0701,0.82104 0.12967,1.64286 0.1788,2.46548 l 19.61637,-1.17254 c 0.0246,0.41205 0.0469,0.82434 0.0672,1.23662 0.0937,1.90552 0.14056,3.81351 0.14056,5.72161 0,1.71144 -0.0378,3.4225 -0.11317,5.13199 -5.04529,-4.744 -9.42222,-2.84575 -10.68152,0.0662 -0.6728,1.55596 -0.49339,3.50211 0.90589,5.3113 0.0978,0.12644 0.20114,0.2527 0.31109,0.37775 -1.16214,0.56533 -2.96975,0.33719 -4.28139,-0.76842 -1.06874,-0.9009 -1.80154,-2.36074 -1.68207,-4.51911 0.0119,-0.21471 0.038,-0.42502 0.0775,-0.63097 0.38805,-2.02137 2.09381,-3.68213 4.26693,-4.96869 1.13508,-0.67202 2.40488,-1.24372 3.67626,-1.6862 -0.59846,-0.63434 -1.20252,-1.25843 -1.81178,-1.87172 -2.52862,1.11332 -4.52149,2.29353 -5.97534,3.55792 -1.68007,1.46109 -2.6518,3.04298 -2.94349,4.83175 -0.0403,0.24707 -0.0677,0.49795 -0.0822,0.75344 -0.0964,1.69704 0.11344,3.04592 0.55811,4.14807 1.06091,2.62963 3.47566,3.82463 5.8291,4.26227 2.35926,0.43873 4.5569,0.0896 5.09219,-0.19378 0.12391,-0.98524 0.23496,-1.97234 0.33228,-2.96055 0.002,-0.025 0.005,-0.0499 0.007,-0.0749 -2.78968,-2.24645 -2.16763,-4.90154 -0.0816,-5.36195 0.46398,-0.1024 1.0002,-0.0898 1.58026,0.0775 1.37224,0.39583 3.05935,1.68879 4.50826,4.46226 -1.02743,0.12635 -1.9836,0.56962 -2.84427,1.20923 -1.61577,1.20067 -2.93855,3.12685 -3.78685,5.08238 -0.28342,0.65336 -0.51642,1.31682 -0.69092,1.9668 -4.84949,-2.74556 -9.94717,-4.14734 -14.26734,-2.0097 0.26851,0.70042 0.529,1.40754 0.78186,2.1208 3.64676,-1.67225 9.05119,0.26534 12.66124,3.1564 0.18994,0.1521 0.37413,0.30628 0.55242,0.46199 0.1556,-0.086 0.31123,-0.17255 0.46664,-0.25942 0.83275,-0.46551 1.66275,-0.94374 2.48977,-1.43505 0.003,-0.27722 0.0496,-1.98339 0.70435,-3.60133 0.57441,-1.41939 1.63656,-2.82867 3.668,-3.23546 -0.14326,1.23815 -0.30597,2.47381 -0.48886,3.70675 -0.27989,1.88704 -0.60609,3.76737 -0.97824,5.63841 -0.15786,0.7936 -0.32434,1.5855 -0.49868,2.37557 l 2.6045,0.57464 c 0.17831,-0.80813 0.34806,-1.61804 0.50953,-2.42983 0.38063,-1.91384 0.71419,-3.83736 1.00045,-5.7676 0.2863,-1.93027 0.525,-3.86746 0.71624,-5.80947 0.19111,-1.94184 0.33485,-3.88807 0.43046,-5.83685 0.0958,-1.94898 0.14369,-3.90046 0.14366,-5.85236 -3e-5,-1.95185 -0.0483,-3.90335 -0.14417,-5.85235 -0.0957,-1.94877 -0.23878,-3.89554 -0.42995,-5.83737 -0.1913,-1.94199 -0.4304,-3.87922 -0.71675,-5.80947 -0.28633,-1.93021 -0.62029,-3.85325 -1.00098,-5.76709 -0.38073,-1.91374 -0.80844,-3.81803 -1.28261,-5.71076 -0.47416,-1.89287 -0.99468,-3.77421 -1.56114,-5.64152 -0.56658,-1.86734 -1.17905,-3.72051 -1.83658,-5.5578 -0.6573,-1.83698 -1.3597,-3.6576 -2.10633,-5.460127 -0.7467,-1.802794 -1.53719,-3.587652 -2.37143,-5.351612 -0.83437,-1.764076 -1.71246,-3.507587 -2.6324,-5.228621 -0.91993,-1.720882 -1.88184,-3.419044 -2.8851,-5.092713 -1.00316,-1.673529 -2.04748,-3.322579 -3.13159,-4.944917 -1.00949,-1.510876 -2.05359,-2.998563 -3.13107,-4.461743 z m -5.86166,11.841137 c 1.99912,0.307142 3.75567,0.87796 5.24774,1.687236 0.8118,0.440299 1.54482,0.950917 2.19522,1.527038 l -9.47953,5.405872 c 0.38387,-1.065411 0.77884,-2.144751 1.11673,-3.235978 0.53922,-1.741763 0.93914,-3.533665 0.91984,-5.384168 z m -194.101849,6.062162 10.681002,5.427576 c -1.521342,0.393634 -2.83621,0.872992 -3.93516,1.415934 -1.222915,0.604235 -2.180532,1.28796 -2.865975,2.0252 -1.792024,-0.786968 -3.68846,-0.776168 -5.681824,0.144694 -1.037397,0.479212 -2.099613,1.20555 -3.168282,2.19056 0.385033,-1.00786 0.784477,-2.010258 1.197343,-3.007048 0.729963,-1.76247 1.503162,-3.507214 2.318721,-5.231722 0.470664,-0.99515 0.95552,-1.983779 1.454175,-2.965194 z m -3.116605,89.298944 0.644405,9.90534 -7.794357,6.14588 9.619568,2.44791 3.436483,9.31209 5.300968,-8.39225 9.918258,-0.39068 -6.343282,-7.63467 2.693376,-9.55394 -9.22166,3.67419 z m 214.113024,0 -8.25427,5.51387 -9.22114,-3.67419 2.69337,9.55394 -6.34328,7.63467 9.91826,0.39068 5.30097,8.39225 3.43648,-9.31209 9.61957,-2.44791 -7.79436,-6.14588 z m -30.83171,27.97607 c -0.48764,0.57668 -0.98195,1.1481 -1.48259,1.71359 -0.73808,-0.6535 -1.74452,-1.0066 -2.84582,-1.01389 -1.49768,-0.01 -3.17104,0.61311 -4.70566,2.02778 -0.99996,0.92214 -1.94398,2.17893 -2.79776,3.85558 -0.33473,0.65724 -0.65561,1.37826 -0.9617,2.16989 0.4859,0.19715 0.97407,0.39163 1.46399,0.58291 0.14643,-0.43441 0.3686,-0.94566 0.64544,-1.48621 0.67743,-1.32294 1.7072,-2.87703 2.83342,-3.93878 1.45096,-1.36741 3.14692,-2.01936 4.78937,-0.4563 -0.84137,0.90621 -1.70006,1.79685 -2.57452,2.67115 -1.15489,1.1551 -2.33787,2.28207 -3.5481,3.37912 -1.21022,1.0968 -2.44776,2.16369 -3.71037,3.19981 -1.26262,1.03624 -2.55032,2.04175 -3.8623,3.0148 -1.31196,0.97296 -2.64824,1.91354 -4.00647,2.82102 -1.35809,0.9075 -2.73824,1.78175 -4.13928,2.62154 -1.40105,0.8398 -2.82285,1.64539 -4.26331,2.41536 -1.44053,0.76999 -2.90034,1.50458 -4.37699,2.20297 -1.47659,0.69831 -2.97026,1.3604 -4.47931,1.98541 -1.50907,0.62503 -3.03345,1.21298 -4.5713,1.7632 -1.53799,0.55041 -3.08929,1.06313 -4.65243,1.53737 -1.56308,0.47415 -3.13778,0.91004 -4.72219,1.3069 -1.58443,0.3969 -3.17869,0.75466 -4.78059,1.07332 -0.006,0.001 -0.0117,0.002 -0.0176,0.004 -0.40083,-2.01702 -2.52532,-3.70477 -5.49734,-3.7977 -0.50655,-0.0158 -1.04137,0.0132 -1.60352,0.0935 l 5.2e-4,0.001 c -0.92438,0.13159 -1.92081,0.40123 -2.9962,0.83561 -0.9882,0.3991 -2.03967,0.93556 -3.16932,1.63091 0.26759,0.451 0.53855,0.90102 0.81287,1.34978 0.63666,-0.41298 1.54088,-0.87295 2.52491,-1.26865 1.50692,-0.60605 3.25477,-1.08623 4.67517,-0.99581 1.45497,0.0927 2.62849,0.77789 2.94246,2.58589 -0.83143,0.14496 -1.66427,0.27926 -2.49907,0.40308 -1.61575,0.23968 -3.23768,0.43984 -4.86327,0.59996 -1.62549,0.15999 -3.25537,0.28006 -4.88704,0.36019 -1.6319,0.0803 -3.2654,0.1204 -4.89893,0.1204 -1.63368,0 -3.26719,-0.0401 -4.89893,-0.1204 -1.63156,-0.0801 -3.26142,-0.20019 -4.88704,-0.36019 -1.6256,-0.16012 -3.24752,-0.36028 -4.86327,-0.59996 -1.61576,-0.23965 -3.22548,-0.51851 -4.82761,-0.83716 -1.60197,-0.31867 -3.19613,-0.67692 -4.78058,-1.07384 -1.58448,-0.39687 -3.15957,-0.83273 -4.72271,-1.30689 -1.22253,-0.37091 -2.43787,-0.7653 -3.64526,-1.18288 l -0.55087,1.59319 c 1.22778,0.42462 2.46358,0.82534 3.70675,1.20251 1.58954,0.48217 3.19104,0.92554 4.80229,1.32912 0.17362,0.0435 0.34757,0.0866 0.52142,0.12919 l -0.1416,0.57826 c -0.19482,0.0397 -0.39027,0.0785 -0.58601,0.11627 -1.81903,0.35114 -3.66069,0.62234 -5.52214,0.90124 -1.22706,0.1838 -2.46161,0.37103 -3.68918,0.58549 0.002,0.74887 0.009,1.49809 0.0207,2.24844 0.87641,0.28979 1.68609,0.71527 2.43138,1.24334 1.77451,1.25722 3.21983,3.12933 4.22764,5.12733 0.22672,0.44951 0.4317,0.9065 0.61289,1.36529 0.77542,0.18756 1.55296,0.36723 2.33215,0.53847 l 2.14819,-9.77563 c 0.78316,0.17211 1.44471,0.36985 1.9973,0.59273 1.68277,0.67868 2.34959,1.59727 2.17971,2.57814 -0.20112,1.16125 -1.40539,1.35625 -2.90783,1.08107 -0.22705,-0.0416 -0.46049,-0.0939 -0.69764,-0.15503 l -0.3762,1.82831 c 0.23731,0.0488 0.47656,0.0906 0.71624,0.12402 2.65813,0.37068 5.2499,-0.2568 5.5764,-2.42672 0.3006,-1.99777 -1.82473,-3.79732 -4.14083,-4.78886 -0.63982,-0.27393 -1.30425,-0.49072 -1.95182,-0.63303 l 0.12816,-0.58291 c 0.65952,0.14494 1.32055,0.28322 1.98282,0.41496 1.62915,0.32403 3.26621,0.60794 4.90926,0.85163 1.24963,0.18537 2.50272,0.34767 3.75843,0.48627 -2.0041,1.75681 -2.37359,3.62007 -1.10071,6.34742 1.54061,3.30083 1.33888,4.54831 -2.67787,4.55476 l -0.21963,1.64486 c 1.72543,0.10524 3.03702,-0.0128 3.98839,-0.26872 3.31415,-0.89185 2.47517,-3.38426 1.44694,-5.77536 -0.32043,-0.75529 -0.54937,-1.39665 -0.68626,-1.95388 -0.27117,-1.10381 -0.18766,-1.8915 0.26148,-2.65565 0.30982,-0.52713 0.79183,-1.04134 1.45262,-1.6521 1.22874,0.10527 2.45948,0.18811 3.69125,0.24856 0.0726,0.004 0.14492,0.007 0.21756,0.0109 l -0.58291,12.40647 c 0.88217,0.0415 1.76449,0.0731 2.64738,0.0941 l 0.29456,-12.41733 c 0.8015,0.019 1.60331,0.0284 2.40502,0.0284 1.66116,0 3.32223,-0.0409 4.98161,-0.12248 0.71397,-0.0351 1.42791,-0.0775 2.14095,-0.12764 l 0.28526,4.06125 c -0.78709,-0.63953 -1.55909,-1.0826 -2.2996,-1.3658 -2.11261,-0.80779 -4.01483,-0.32055 -5.10822,0.66042 -0.56846,0.51001 -0.91463,1.15566 -0.92036,1.81798 -0.007,0.86156 0.34398,1.53007 0.92036,1.99419 1.08001,0.86962 2.92336,0.99849 4.4912,0.32866 -0.33035,-0.52304 -0.65638,-1.04756 -0.97772,-1.57354 -2.43064,1.13175 -3.25732,-1.97099 -0.1571,-2.07016 0.58261,-0.0186 1.18917,0.11987 1.82883,0.41393 0.7359,0.33835 1.51467,0.88252 2.3518,1.63039 l 0.4563,6.49262 c 0.7731,-0.0375 1.44353,-0.0839 1.99988,-0.1328 0.40358,-0.0355 0.79565,-0.0784 1.17564,-0.12764 2.19485,-0.2847 4.00265,-0.78785 5.44566,-1.39268 2.76004,-1.15683 4.22652,-2.68265 4.85862,-4.0535 0.39387,-0.85418 0.4669,-1.65617 0.33228,-2.30839 -0.21297,-1.0318 -0.65742,-1.73855 -1.22887,-2.19987 -1.36943,-1.10551 -3.52724,-0.83928 -5.27306,-0.27698 -1.12522,0.36244 -2.10006,0.85803 -2.55075,1.23196 0.39405,0.5179 0.79272,1.03371 1.19683,1.5472 0.55273,-0.31995 1.10995,-0.61345 1.64124,-0.8444 1.79819,-0.78161 3.37517,-0.87509 3.74447,1.15446 0.13864,0.7619 -0.41787,2.51032 -3.00188,3.85402 -1.25302,0.65161 -3.0067,1.20869 -5.34748,1.43041 -0.18217,0.0172 -0.36821,0.0324 -0.55759,0.0455 l -0.98133,-10.5084 c 0.16807,-0.0157 0.33586,-0.0315 0.50384,-0.0481 1.65303,-0.16282 3.30242,-0.36605 4.94544,-0.60978 1.64303,-0.24369 3.28013,-0.52812 4.90926,-0.85214 1.629,-0.32405 3.25,-0.68781 4.8612,-1.09141 1.61121,-0.40357 3.21228,-0.84696 4.80178,-1.32912 1.51843,-0.46068 3.0265,-0.95689 4.52168,-1.48828 l 2.5182,7.08639 c -1.96072,-1.14609 -3.89423,-1.71539 -5.8627,-1.71773 -0.97125,-0.001 -1.95141,0.1359 -2.95279,0.40928 -0.78177,0.21344 -1.46938,0.54752 -2.04277,0.96635 -1.3773,1.00611 -2.12355,2.52754 -1.79472,3.99407 0.38139,1.70095 1.79811,2.51353 3.46077,2.6572 1.69965,0.14686 3.58258,-0.41436 4.73563,-1.3379 -0.41448,-0.49916 -0.8253,-1.00068 -1.23248,-1.50378 -1.74649,1.16916 -3.51692,0.98931 -4.19716,0.0708 -0.11678,-0.15768 -0.2022,-0.33701 -0.25167,-0.53536 -0.0485,-0.19433 -0.0544,-0.38561 -0.0253,-0.57103 0.14021,-0.89346 1.09979,-1.65373 2.15336,-1.94458 0.79118,-0.21842 1.76296,-0.24092 2.77864,-0.12454 2.71577,0.31108 5.93983,1.63239 6.5071,3.22874 l 0.36483,1.02578 c 0.0786,-0.0279 0.15711,-0.0561 0.23565,-0.0842 0.75354,-0.26961 1.50389,-0.5471 2.25154,-0.83251 l -4.4297,-11.60394 c 0.88549,-0.33804 1.766,-0.6884 2.64169,-1.0511 1.14605,-0.47466 2.28379,-0.97038 3.41168,-1.48673 -1.04846,1.71256 -1.71162,3.51577 -1.88309,5.17694 -0.1164,1.12779 -0.007,2.19606 0.37001,3.12643 0.53617,1.32388 1.25666,2.23462 2.09806,2.83186 1.88018,1.33448 4.29707,1.05533 6.23114,0.3266 1.538,-0.57953 2.72983,-1.42413 3.1409,-1.88412 l -0.91106,-1.77716 c -0.78953,0.92358 -1.86013,1.66628 -3.00343,2.02624 -2.01776,0.6352 -4.19668,0.0426 -5.38572,-2.71198 -0.71808,-1.66353 -0.049,-4.21932 1.11466,-6.32003 0.54622,-0.98614 1.21377,-1.89322 1.93993,-2.58589 0.2816,-0.14302 0.5626,-0.2874 0.84285,-0.43305 l 0.69298,1.33377 c 0.25921,-0.13471 0.59338,-0.3383 1.02319,-0.56792 l 0.0207,-0.0109 c 4.15232,-2.21049 5.2396,-0.16724 5.44308,0.17569 -1.6519,0.81262 -2.96681,2.14881 -3.43597,3.57911 -0.27546,0.83979 -0.26162,1.72204 0.16847,2.54559 0.3054,0.58478 0.99412,1.13884 1.93735,1.39423 1.39831,0.37858 3.39355,0.094 5.34541,-1.7446 0.39198,-0.36925 0.78083,-0.80068 1.15858,-1.30018 -0.53057,-0.37254 -1.05827,-0.74778 -1.58284,-1.12603 -0.21349,0.25609 -0.42056,0.4833 -0.62012,0.6842 -2.50425,2.5209 -3.71226,0.94391 -3.84059,0.71261 -0.51542,-0.92893 0.5391,-2.34931 1.75544,-3.06958 0.15639,-0.0926 0.32882,-0.18025 0.5147,-0.26303 1.44311,-0.64269 3.8095,-1.02309 5.71645,-0.96066 1.41715,0.0465 2.63448,0.3391 3.10627,1.01854 l 0.76843,1.10691 c 0.72538,-0.50367 1.44501,-1.01591 2.15852,-1.53634 l -7.31945,-10.03453 c 0.21654,-0.15794 0.43275,-0.31681 0.64802,-0.47646 1.33414,-0.98949 2.64397,-2.0117 3.92793,-3.06544 0.86113,-0.70666 1.71025,-1.42753 2.54765,-2.16215 l 2.68511,3.06028 c -1.43274,-0.0471 -2.67412,0.0565 -3.86437,0.76946 -0.21821,0.13073 -0.43477,0.28192 -0.6506,0.45631 -5.47992,4.42769 1.30871,7.76176 4.03231,3.66489 0.0825,-0.1241 0.16302,-0.25443 0.24081,-0.39119 -0.27189,-0.10159 -0.54319,-0.20417 -0.8139,-0.30748 -0.30629,-0.11688 -0.61199,-0.23491 -0.91674,-0.35398 -1.25028,2.37177 -3.78621,0.40241 -1.37873,-1.55184 0.14482,-0.11756 0.30129,-0.22367 0.46974,-0.31885 0.96395,-0.5446 2.31455,-0.72463 4.09536,-0.58342 l 4.29276,4.89272 c 0.53677,-0.45064 1.00164,-0.85612 1.39113,-1.20716 0.041,-0.0369 0.0815,-0.0738 0.12092,-0.10955 1.54343,-1.40309 2.73241,-2.77727 3.61993,-4.05764 1.45423,-2.09723 2.11739,-3.96351 2.26601,-5.46375 0.18122,-1.82983 -0.3882,-3.147 -1.25263,-3.90105 -1.3218,-1.15302 -2.62568,-1.16377 -3.76308,-0.64492 -1.50918,0.68828 -2.82185,2.35938 -3.57136,3.68866 -0.32073,0.56904 -0.54144,1.08348 -0.62477,1.44229 0.62711,0.17381 1.25685,0.34272 1.88929,0.50695 0.0674,-0.16129 0.13602,-0.32125 0.20619,-0.47853 1.06076,-2.37639 2.42486,-4.21993 4.26899,-2.53318 0.65634,0.60033 1.36913,2.79897 -0.72295,6.07922 -0.69433,1.08903 -1.70939,2.29948 -3.14244,3.55327 l -7.14065,-7.7711 c 1.05289,-0.96761 2.0854,-1.9576 3.09645,-2.96881 1.1746,-1.1744 2.32043,-2.37793 3.43596,-3.60857 0.77981,-0.86046 1.54463,-1.73434 2.29444,-2.62103 z m -152.451672,0.002 -1.28726,1.0883 c 0.365437,0.43215 0.734806,0.86128 1.107426,1.28726 l -9.349817,8.17883 c 0.09312,0.17781 0.519284,0.70858 1.276408,1.54874 0.05597,0.0621 0.113939,0.12565 0.173633,0.19121 1.183504,1.29967 2.596386,2.50301 4.098458,3.44836 1.929253,1.21463 3.953534,1.96944 5.721098,1.97508 1.372784,0.004 2.567877,-0.44227 3.454569,-1.45004 0.856864,-0.97388 0.9949,-2.08352 0.706934,-3.1409 -0.423591,-1.55582 -1.7861,-3.06071 -3.286621,-3.98012 -0.662966,-0.40608 -1.360954,-0.70248 -2.0283,-0.83509 -0.170442,0.64572 -0.335512,1.29421 -0.495577,1.94562 0.372067,0.13215 0.705305,0.26858 1.00459,0.40876 2.80623,1.31488 2.626357,3.07148 2.021065,3.72432 -1.337444,1.44251 -3.511719,1.02403 -5.613094,-0.13229 -1.471275,-0.80931 -2.842992,-1.94271 -3.865914,-2.96778 l 7.777303,-7.13393 c 0.986689,1.07553 1.996603,2.12958 3.028756,3.16157 1.174435,1.17462 2.377352,2.32087 3.608048,3.43648 1.095113,0.99249 2.212226,1.96098 3.349667,2.90473 l -7.931299,9.55859 c 0.158067,0.13115 0.316648,0.26193 0.475423,0.39222 0.52392,0.42999 1.051361,0.85483 1.582849,1.27538 l 7.707023,-9.73998 c 0.829063,0.65601 1.668521,1.29877 2.517676,1.92857 1.334191,0.98943 2.692465,1.94627 4.073653,2.86907 0.725047,0.48449 1.456354,0.95959 2.193665,1.42524 l -0.31781,0.50385 c -0.959134,-0.11801 -1.920606,-0.26159 -2.885096,-0.41858 -1.857224,-0.30223 -3.721698,-0.6539 -5.598108,-0.96325 -0.437354,-0.0721 -0.875757,-0.14192 -1.314648,-0.20826 -0.236248,0.71044 -0.468016,1.42294 -0.695565,2.13786 0.124607,0.0932 0.246204,0.18968 0.364836,0.28887 1.480786,1.23799 2.516359,2.94502 3.182234,4.82296 0.514038,1.44981 0.811616,3.01706 0.891936,4.53254 0.658838,0.41348 1.321864,0.82017 1.989026,1.22008 0.01707,0.0102 0.03408,0.0208 0.05116,0.031 l 5.141289,-8.58758 c 1.537462,1.07841 2.473075,2.05761 2.928503,2.88509 0.64093,1.16453 0.302745,2.0111 -0.713652,2.14302 -0.713813,0.0927 -1.762576,-0.17643 -2.973462,-0.9617 l -0.93741,1.61438 c 1.319346,0.97483 2.574908,1.39535 3.624585,1.41593 2.726892,0.0534 3.973616,-2.48323 2.701127,-5.05292 -0.610472,-1.23283 -1.784682,-2.48778 -3.683496,-3.62459 l 0.306958,-0.51211 c 1.409948,0.84413 2.840454,1.65414 4.289661,2.42879 1.34447,0.71865 2.704848,1.40711 4.080371,2.06448 L 93.7457,245.67486 c 0.138303,0.0661 0.276393,0.13186 0.414962,0.1974 0.660344,0.3123 1.323839,0.61824 1.990059,0.91777 l 5.093229,-11.3285 c 0.69147,0.31088 1.38637,0.61419 2.08463,0.9095 l 0.6568,-1.55184 c -1.27611,-0.53969 -2.541,-1.10626 -3.79356,-1.69861 -1.476702,-0.69838 -2.936419,-1.43298 -4.376996,-2.20296 -1.44051,-0.76998 -2.862226,-1.57506 -4.263305,-2.41484 -1.401095,-0.83982 -2.781654,-1.71405 -4.139799,-2.62155 -1.358271,-0.90747 -2.694445,-1.84856 -4.006474,-2.82153 -1.312033,-0.97307 -2.600163,-1.97805 -3.862813,-3.01429 -1.262668,-1.03613 -2.499598,-2.10352 -3.709851,-3.20032 -1.210283,-1.09707 -2.393677,-2.22401 -3.548621,-3.37912 -1.155158,-1.15494 -2.282042,-2.3379 -3.379122,-3.5481 -0.766852,-0.84614 -1.519367,-1.70571 -2.256711,-2.57762 z m 134.130312,18.91925 4.31912,6.2203 c -0.88856,-0.0905 -1.70359,-0.14137 -2.44998,-0.14883 -1.27497,-0.0127 -2.34546,0.10159 -3.22978,0.36173 -0.7519,-1.19438 -2.04842,-1.80398 -3.85403,-1.91202 -0.61045,-0.0365 -1.27942,-0.0162 -2.00918,0.0568 0.50621,-0.29167 1.00992,-0.58795 1.51102,-0.88832 1.42474,-0.85401 2.8285,-1.74261 4.20956,-2.66547 0.50409,-0.33679 1.00531,-0.67846 1.50327,-1.02423 z m -117.877557,4.2639 c 0.482285,-0.0191 0.951469,-0.0185 1.407666,0.002 1.060381,0.0479 2.051683,0.20402 2.983797,0.47336 l -3.679362,5.83375 c -0.380237,-1.20801 -0.697583,-2.42124 -1.104325,-3.61373 -0.29799,-0.87358 -0.643201,-1.7342 -1.095541,-2.57969 0.50969,-0.0579 1.005479,-0.0967 1.487765,-0.11575 z m 35.250557,13.56454 -1.63659,6.69985 c -0.16824,-0.23047 -0.33353,-0.46213 -0.49713,-0.69453 -1.10066,-1.56343 -2.11458,-3.12016 -3.55533,-4.47983 1.77371,-0.82701 3.44183,-1.32317 5.04827,-1.48053 0.21462,-0.021 0.42824,-0.0361 0.64078,-0.045 z m -36.434981,1.75545 -0.767912,1.28778 c 0.551938,0.32029 1.106104,0.63578 1.662948,0.94723 -0.923737,1.60565 1.105868,2.86969 2.17041,3.92947 0.448248,0.44622 0.720843,0.85717 0.51263,1.25471 -0.234638,0.44799 -0.745922,0.50941 -1.354956,0.32142 -1.064228,-0.32852 -2.379925,-1.39913 -3.030306,-2.43912 l -0.747241,1.30018 c 0.202099,0.81374 1.530101,1.93351 3.047359,2.50475 1.382771,0.52055 2.879683,0.56944 3.740857,-0.42271 1.533435,-0.45179 2.405461,1.12284 1.838648,2.31252 l -0.238745,0.50023 c -2.69491,-1.64847 -5.432392,-1.90923 -6.244064,-0.38654 -0.723857,1.35795 0.875441,2.5463 2.025716,3.10007 0.569606,-0.28212 1.136031,-0.56772 1.699121,-0.8568 -2.640613,-0.74019 -2.545633,-2.72193 1.070219,-0.96686 0.414415,0.20114 0.769616,0.481 1.049549,0.79891 1.091742,1.23981 1.078099,3.17829 -1.414384,2.99 -0.895107,-0.0676 -2.122175,-0.42132 -3.68763,-1.21853 0.09504,0.0484 -0.679075,-0.35519 -2.29185,-1.26194 -0.142927,-0.0804 -0.293095,-0.16472 -0.449068,-0.25321 -0.03416,0.42487 -0.06652,0.85017 -0.09767,1.27589 -0.03022,0.41325 -0.05892,0.82672 -0.0863,1.24075 1.721706,1.21269 3.307361,2.56923 4.781103,4.09019 0.828509,0.855 1.621232,1.76119 2.381767,2.72232 0.648141,-0.0486 1.293929,-0.10195 1.937866,-0.1602 l 5.17e-4,-0.002 c -1.170655,-1.42949 -2.37231,-2.77857 -3.61425,-4.05402 -0.572864,-0.58835 -1.153936,-1.16085 -1.744596,-1.71824 0.820151,0.32566 1.567488,0.54322 2.23914,0.67231 4.880702,0.93795 5.600808,-2.57773 4.1491,-4.39301 l 2.555917,-5.6162 c 1.193619,0.54311 2.395832,1.06698 3.606498,1.57097 l -4.246253,10.20041 c 0.07301,0.0304 0.146041,0.0607 0.219108,0.0909 0.659762,0.27327 1.321828,0.54105 1.985926,0.80357 L 98.4374,255.73376 c 0.98022,0.38747 1.96535,0.76174 2.95538,1.12345 l -3.776518,10.3358 c 0.275957,0.10082 0.552264,0.20075 0.82889,0.29972 0.478864,0.17137 0.958896,0.3401 1.439705,0.50592 l 3.586863,-10.40299 c 0.61191,0.21103 1.22601,0.4174 1.84123,0.61857 l 0.46561,-1.42524 c -0.60759,-0.19867 -1.21366,-0.4024 -1.81798,-0.61081 0.748,-2.16916 2.86256,-2.86287 5.43739,-2.49752 0.53069,0.0753 1.08259,0.19567 1.64952,0.35863 1.12705,0.32398 2.33104,0.9176 3.64939,1.77457 0.98212,0.63845 2.02323,1.41992 3.14761,2.34404 0.4556,-0.31018 0.90772,-0.62307 1.3565,-0.93844 -1.63455,-1.34837 -2.82957,-2.31146 -4.08399,-3.08405 -1.23276,-0.75923 -2.43676,-1.27743 -3.98993,-1.72961 -0.38857,-0.11312 -0.81148,-0.21194 -1.25471,-0.28939 -2.03279,-0.35533 -4.56548,-0.2763 -6.30711,1.06867 -0.69051,0.53324 -1.26693,1.27216 -1.63245,2.27325 -1.5934,-0.58174 -3.174211,-1.19732 -4.741318,-1.8464 -1.804558,-0.74742 -3.591115,-1.53899 -5.356779,-2.37402 -1.76576,-0.83513 -3.510703,-1.71373 -5.233273,-2.63446 -1.649549,-0.88178 -3.278727,-1.80228 -4.884973,-2.76056 z m 121.065991,2.75849 c -1.09822,-0.0845 -2.25567,0.0925 -3.34501,0.5457 -0.21257,0.0884 -0.42379,0.18713 -0.63252,0.29714 -1.89458,0.99853 -3.18215,2.68305 -3.622,4.47777 -0.27781,1.13346 -0.21695,2.31983 0.27647,3.38945 0.49423,1.0714 1.35868,1.88573 2.44998,2.37608 1.72662,0.77582 4.00461,0.7262 6.09627,-0.3762 0.22817,-0.12026 0.44753,-0.24993 0.65784,-0.38757 2.92028,-1.91142 3.97821,-5.35384 2.52284,-7.79333 -0.90801,-1.52199 -2.57348,-2.38824 -4.40387,-2.52904 z m -118.143172,0.64337 c 0.417143,0.22936 0.835399,0.45668 1.255221,0.6811 1.627046,0.86967 3.274022,1.70166 4.939233,2.49597 l -1.012858,2.1239 c -0.453524,-0.81328 -1.230373,-1.59696 -2.588472,-1.42679 0.03002,-0.6689 -1.012218,-1.54668 -1.790589,-2.34662 -0.576791,-0.59281 -1.013314,-1.1442 -0.802535,-1.52756 z m 117.109132,1.40818 c 1.36438,-0.048 2.65985,0.53643 3.32848,1.70843 0.89262,1.56463 0.27869,3.58996 -1.35754,4.79609 -0.19857,0.14635 -0.4117,0.28007 -0.63821,0.39946 -2.0931,1.10315 -4.53249,0.52752 -5.41414,-1.28985 -0.88163,-1.81737 0.0859,-4.02672 2.06241,-5.06842 0.21387,-0.11272 0.43203,-0.20772 0.65216,-0.28526 0.44941,-0.15831 0.91205,-0.24443 1.36684,-0.26045 z m -18.13223,4.9997 c -0.16277,0.0572 -0.32584,0.11409 -0.48886,0.17053 -0.50733,0.17569 -1.0159,0.34796 -1.52548,0.51677 l 1.98179,5.78259 c 0.63785,0.12076 1.27834,0.23658 1.92184,0.34726 0.11196,0.0193 0.22429,0.0379 0.33642,0.0568 1.5781,-1.1001 3.12125,-2.23093 4.62917,-3.39101 1.69752,1.56261 0.93743,5.18853 -2.84375,6.57118 -0.28968,0.10592 -0.57866,0.1961 -0.86662,0.27078 -2.5261,0.65535 -4.95319,0.10895 -7.16545,-1.60094 -0.63436,-0.49032 -1.25143,-1.07586 -1.85053,-1.75648 -0.53873,0.46193 -1.08322,0.92044 -1.6335,1.37511 0.89279,1.02056 2.31807,2.39587 4.34754,3.22771 1.80562,0.74003 4.11033,1.05091 6.83628,0.24753 0.25969,-0.0765 0.52286,-0.1631 0.78961,-0.26045 2.3989,-0.8754 3.87913,-2.13986 4.66845,-3.46697 1.29864,-2.18332 0.76827,-4.55729 -0.34933,-6.17482 -0.6953,-0.13466 -1.38719,-0.27507 -2.07533,-0.42168 -0.0777,0.0598 -0.15565,0.11921 -0.23357,0.17881 -1.51309,1.15711 -3.0623,2.28441 -4.64623,3.38015 z m -75.53751,2.37608 c -1.18785,0.001 -2.38804,0.22526 -3.49642,0.69815 0.0648,0.48339 0.13195,0.9668 0.20153,1.45056 2.59935,1.08746 1.51679,2.60849 0.31937,3.58893 0.21095,0.50125 0.42595,1.00226 0.6444,1.50275 l 0.13849,-0.0119 c 2.41305,-0.21052 4.6619,-0.44058 6.60528,-0.63924 0.74014,-0.0756 1.43918,-0.14729 2.11667,-0.21497 0.36336,0.44806 0.19045,1.62203 -0.2589,3.58583 l -0.89038,3.89123 c 0.77297,0.17688 1.54785,0.34663 2.32389,0.50953 l 2.26032,-10.76937 c 0.41597,0.0873 0.83216,0.17236 1.24902,0.25529 1.93976,0.3858 3.88928,0.72424 5.84564,1.0144 1.95633,0.29021 3.91978,0.5322 5.88801,0.72606 1.79551,0.17674 3.59535,0.31359 5.39709,0.40979 l 0.0796,-1.49758 c -1.77942,-0.095 -3.5567,-0.22956 -5.3299,-0.40411 -1.94382,-0.19145 -3.8826,-0.43067 -5.81464,-0.71727 -1.93209,-0.28657 -3.8576,-0.62046 -5.77329,-1.00149 -1.11564,-0.22193 -2.22788,-0.45991 -3.33675,-0.71365 l -0.60719,2.65307 c -0.46996,-0.97939 -1.15295,-1.79706 -1.96681,-2.44637 -1.53701,-1.22618 -3.56545,-1.87216 -5.59501,-1.86965 z m 1.07539,1.80609 c 0.51531,0.0101 0.98483,0.0914 1.4118,0.22221 1.2286,0.37629 2.10881,1.16547 2.61535,1.80661 0.28809,0.36467 0.45472,0.68112 0.49092,0.84543 -0.24075,0.028 -0.4816,0.0556 -0.72295,0.0822 -1.69212,0.18644 -3.39938,0.33707 -5.11959,0.45114 0.5506,-0.53274 1.29727,-1.81664 -0.3886,-3.11144 -0.0266,-0.0204 -0.0539,-0.0405 -0.0816,-0.061 0.0365,-0.01 0.0729,-0.0197 0.10904,-0.0289 0.60938,-0.15521 1.17038,-0.21632 1.68568,-0.20619 z m 52.8128,1.37408 c -0.48744,0.3021 -0.97795,0.6016 -1.47226,0.89762 -0.1267,0.0759 -0.25372,0.15139 -0.38086,0.22686 0.13605,0.14739 0.29567,0.28548 0.47594,0.41496 1.41509,1.01639 3.99489,1.46941 6.42752,1.94924 2.49371,0.4918 4.77622,1.00568 5.10873,2.41277 0.36639,1.55049 -0.77102,2.66066 -3.06596,3.13417 0.89986,-2.04674 -0.18616,-3.23382 -1.67846,-3.71553 -0.83765,-0.27042 -1.81815,-0.32179 -2.68562,-0.16795 -1.60951,0.28543 -2.68673,0.96383 -3.30471,1.79059 -1.01783,1.3617 -0.7749,3.13637 0.59221,3.99304 0.38765,0.24291 0.86428,0.40972 1.42266,0.46767 0.41123,-0.5322 0.81736,-1.06606 1.21749,-1.60197 -2.25869,-0.38241 -1.66777,-2.49446 0.14211,-2.81172 2.47981,-0.43468 3.3671,1.31475 1.65158,2.49287 0.4472,0.58951 0.89927,1.17709 1.35599,1.76217 0.25086,-0.0484 0.50278,-0.10306 0.75448,-0.16381 2.46645,-0.59537 4.8477,-1.77576 5.80119,-3.39256 0.40279,-0.68297 0.54435,-1.43528 0.33487,-2.24793 -0.23526,-0.91262 -0.73848,-1.56565 -1.41025,-2.04587 -1.58856,-1.13552 -4.20584,-1.34326 -6.5996,-1.73374 -1.8539,-0.30246 -3.58919,-0.71171 -4.68705,-1.66088 z m -15.91169,1.47071 c -0.46006,0.48132 -0.92603,0.95968 -1.39733,1.43557 1.2173,0.39925 2.76535,0.98069 4.23126,1.62936 2.86381,1.26757 5.70969,2.89957 5.87406,4.65708 0.12281,1.31308 -1.41852,2.63722 -3.19205,2.7559 -0.78239,0.0524 -1.61174,-0.0205 -2.32854,-0.22014 -1.06247,-0.29573 -1.85936,-0.86456 -1.88826,-1.6893 -0.0257,-0.73451 0.93613,-1.02703 1.78026,-0.51263 0.25527,0.15559 0.50134,0.38512 0.709,0.70022 0.55141,-0.43024 1.09736,-0.86399 1.63762,-1.30122 -0.65309,-0.81333 -1.53721,-1.26847 -2.44688,-1.43867 -2.06176,-0.38549 -4.3811,0.69436 -4.35425,2.59467 0.0273,1.92972 2.04187,3.23157 4.65708,3.57033 0.67185,0.0871 1.37787,0.10989 2.09134,0.0636 1.63663,-0.10628 3.16535,-0.56745 4.27985,-1.29914 1.21606,-0.79846 1.91832,-1.90355 1.76888,-3.20446 -0.16164,-1.40713 -1.09881,-2.57359 -2.43654,-3.57498 -1.6436,-1.23039 -3.95991,-2.25633 -6.25234,-3.14812 -0.91186,-0.35464 -1.8455,-0.69695 -2.73316,-1.01803 z m -18.82779,1.02061 c -0.94491,-0.0179 -1.6927,0.12593 -2.26653,0.38086 -1.80287,0.80092 -1.89104,2.73414 -0.57619,3.88658 0.4098,0.3592 0.95368,0.63647 1.61178,0.76636 0.47171,-0.40874 0.93937,-0.82013 1.4025,-1.23403 -1.16915,-0.0847 -3.20332,-2.55211 0.39739,-2.10737 1.27262,0.15719 2.24236,0.61792 2.93161,1.24644 1.80955,1.65 1.69481,4.53482 -0.55759,5.66322 -0.73128,0.36632 -1.68529,0.53912 -2.84324,0.39997 -1.08003,-0.12978 -2.27398,-0.65928 -3.41168,-1.57458 -1.28411,-1.03309 -2.4823,-2.54537 -3.3755,-4.50721 -0.51033,0.34518 -1.02465,0.68736 -1.54306,1.02629 0.8814,2.12599 2.27887,4.2646 4.61006,5.56245 1.00044,0.557 2.17049,0.95606 3.52484,1.11879 1.07113,0.12871 2.02085,0.10114 2.84376,-0.0455 5.87461,-1.04692 5.00066,-7.47748 0.9524,-9.67435 -0.7673,-0.41642 -1.66305,-0.7099 -2.68925,-0.83457 -0.35961,-0.0437 -0.69634,-0.0674 -1.0113,-0.0734 z" /><g
         id="g62035"
         transform="matrix(0.93828739,0,0,0.93828739,322.77082,-196.89688)"><g
           id="g61806"
           transform="translate(-300.83858,214.46782)"><path
             style="fill:#ffffff;fill-opacity:1;stroke:#ffffff;stroke-width:0.264583px;stroke-linecap:butt;stroke-linejoin:miter;stroke-opacity:1"
             d="M 56.091666,85.857291 C 57.875643,70.723979 67.760069,65.242265 81.227082,64.029166 78.901883,76.795385 66.951672,85.215474 56.091666,85.857291 Z"
             id="path59615" /><path
             style="fill:#ffffff;fill-opacity:1;stroke:#ffffff;stroke-width:0.264583px;stroke-linecap:butt;stroke-linejoin:miter;stroke-opacity:1"
             d="M 34.375822,104.37747 C 34.044072,88.702854 38.168316,83.96443 48.373588,78.88029 48.921897,93.058104 43.45299,98.381078 34.375822,104.37747 Z"
             id="path59982" /><path
             style="fill:#ffffff;fill-opacity:1;stroke:#ffffff;stroke-width:0.240784px;stroke-linecap:butt;stroke-linejoin:miter;stroke-opacity:1"
             d="m 25.51951,134.74897 c -0.30191,-14.26469 3.45136,-18.57689 12.738671,-23.20371 0.498989,12.90252 -4.477991,17.7467 -12.738671,23.20371 z"
             id="path60336" /><path
             style="fill:#ffffff;fill-opacity:1;stroke:#ffffff;stroke-width:0.250647px;stroke-linecap:butt;stroke-linejoin:miter;stroke-opacity:1"
             d="m 27.38289,166.25567 c 2.270629,-14.67775 -1.01,-19.64282 -9.957796,-25.69258 -2.286909,13.2451 2.183361,18.92717 9.957796,25.69258 z"
             id="path60338" /><path
             style="fill:#ffffff;fill-opacity:1;stroke:#ffffff;stroke-width:0.246139px;stroke-linecap:butt;stroke-linejoin:miter;stroke-opacity:1"
             d="m 40.332298,199.5063 c 4.044237,-13.76996 1.394096,-18.91686 -6.748146,-25.78596 -3.885606,12.39718 -0.14227,18.37379 6.748146,25.78596 z"
             id="path60420" /><path
             style="fill:#ffffff;fill-opacity:1;stroke:#ffffff;stroke-width:0.266384px;stroke-linecap:butt;stroke-linejoin:miter;stroke-opacity:1"
             d="m 64.128443,219.59172 c -8.299112,-13.2476 -14.114344,-14.44237 -24.877784,-11.87963 7.31231,12.14765 14.499162,12.93384 24.877784,11.87963 z"
             id="path60422" /><path
             style="fill:#ffffff;fill-opacity:1;stroke:#ffffff;stroke-width:0.240797px;stroke-linecap:butt;stroke-linejoin:miter;stroke-opacity:1"
             d="m 90.557988,231.65269 c -5.116566,-13.1721 -10.076411,-15.22121 -20.068039,-14.77533 4.427409,12.02781 10.674457,13.94731 20.068039,14.77533 z"
             id="path60588" /><path
             style="fill:none;stroke:#ffffff;stroke-width:3.565;stroke-linecap:round;stroke-linejoin:round;stroke-miterlimit:4;stroke-dasharray:none;stroke-opacity:1"
             d="m 121.42054,240.22185 c -1.32364,-2.90672 -3.43761,-5.44889 -6.05415,-7.28047 -2.61655,-1.83159 -5.72874,-2.94773 -8.91294,-3.1965 -4.81106,-0.37587 -9.535909,1.18249 -14.312281,1.87089 -3.680875,0.53051 -7.422204,0.54398 -11.131777,0.28063 -2.669993,-0.18955 -5.354076,-0.52742 -7.88053,-1.41162 -2.526454,-0.88421 -4.904245,-2.35165 -6.525298,-4.48167 -1.811691,-2.38051 -2.552894,-5.38179 -3.267403,-8.2867 -0.556391,-2.26207 -1.126504,-4.53351 -2.050473,-6.67192 -0.923968,-2.13841 -2.225541,-4.15596 -4.036557,-5.62114 -2.254774,-1.82419 -5.131372,-2.67394 -7.960463,-3.31263 -2.829091,-0.63869 -5.731844,-1.12117 -8.352243,-2.36423 -3.853095,-1.82782 -6.79133,-5.16363 -9.131352,-8.72896 -1.938222,-2.95313 -3.55176,-6.14161 -4.530962,-9.53555 -0.979202,-3.39395 -1.31079,-7.00246 -0.707521,-10.48294 0.714924,-4.12466 2.697918,-7.91974 3.741774,-11.97367 1.564727,-6.07679 0.914777,-12.7119 -1.870887,-18.33469 -1.90074,-3.8366 -4.770762,-7.25627 -5.799748,-11.41241 -0.649128,-2.62186 -0.512813,-5.40443 0.171664,-8.01729 0.684477,-2.61286 1.902839,-5.06464 3.38302,-7.32398 2.311266,-3.5279 5.289804,-6.63197 8.793168,-8.98026 3.645359,-2.44347 7.806246,-4.04715 11.412408,-6.5481 5.08928,-3.529529 10.275473,-9.211674 12.020448,-15.154183"
             id="path60789" /></g><g
           id="g62015"
           transform="matrix(-1,0,0,1,-82.617084,214.46782)"><path
             style="fill:#ffffff;fill-opacity:1;stroke:#ffffff;stroke-width:0.264583px;stroke-linecap:butt;stroke-linejoin:miter;stroke-opacity:1"
             d="M 56.091666,85.857291 C 57.875643,70.723979 67.760069,65.242265 81.227082,64.029166 78.901883,76.795385 66.951672,85.215474 56.091666,85.857291 Z"
             id="path61999" /><path
             style="fill:#ffffff;fill-opacity:1;stroke:#ffffff;stroke-width:0.264583px;stroke-linecap:butt;stroke-linejoin:miter;stroke-opacity:1"
             d="M 34.375822,104.37747 C 34.044072,88.702854 38.168316,83.96443 48.373588,78.88029 48.921897,93.058104 43.45299,98.381078 34.375822,104.37747 Z"
             id="path62001" /><path
             style="fill:#ffffff;fill-opacity:1;stroke:#ffffff;stroke-width:0.240784px;stroke-linecap:butt;stroke-linejoin:miter;stroke-opacity:1"
             d="m 25.51951,134.74897 c -0.30191,-14.26469 3.45136,-18.57689 12.738671,-23.20371 0.498989,12.90252 -4.477991,17.7467 -12.738671,23.20371 z"
             id="path62003" /><path
             style="fill:#ffffff;fill-opacity:1;stroke:#ffffff;stroke-width:0.250647px;stroke-linecap:butt;stroke-linejoin:miter;stroke-opacity:1"
             d="m 27.38289,166.25567 c 2.270629,-14.67775 -1.01,-19.64282 -9.957796,-25.69258 -2.286909,13.2451 2.183361,18.92717 9.957796,25.69258 z"
             id="path62005" /><path
             style="fill:#ffffff;fill-opacity:1;stroke:#ffffff;stroke-width:0.246139px;stroke-linecap:butt;stroke-linejoin:miter;stroke-opacity:1"
             d="m 40.332298,199.5063 c 4.044237,-13.76996 1.394096,-18.91686 -6.748146,-25.78596 -3.885606,12.39718 -0.14227,18.37379 6.748146,25.78596 z"
             id="path62007" /><path
             style="fill:#ffffff;fill-opacity:1;stroke:#ffffff;stroke-width:0.266384px;stroke-linecap:butt;stroke-linejoin:miter;stroke-opacity:1"
             d="m 64.128443,219.59172 c -8.299112,-13.2476 -14.114344,-14.44237 -24.877784,-11.87963 7.31231,12.14765 14.499162,12.93384 24.877784,11.87963 z"
             id="path62009" /><path
             style="fill:#ffffff;fill-opacity:1;stroke:#ffffff;stroke-width:0.240797px;stroke-linecap:butt;stroke-linejoin:miter;stroke-opacity:1"
             d="m 90.557988,231.65269 c -5.116566,-13.1721 -10.076411,-15.22121 -20.068039,-14.77533 4.427409,12.02781 10.674457,13.94731 20.068039,14.77533 z"
             id="path62011" /><path
             style="fill:none;stroke:#ffffff;stroke-width:3.565;stroke-linecap:round;stroke-linejoin:round;stroke-miterlimit:4;stroke-dasharray:none;stroke-opacity:1"
             d="m 121.42054,240.22185 c -1.32364,-2.90672 -3.43761,-5.44889 -6.05415,-7.28047 -2.61655,-1.83159 -5.72874,-2.94773 -8.91294,-3.1965 -4.81106,-0.37587 -9.535909,1.18249 -14.312281,1.87089 -3.680875,0.53051 -7.422204,0.54398 -11.131777,0.28063 -2.669993,-0.18955 -5.354076,-0.52742 -7.88053,-1.41162 -2.526454,-0.88421 -4.904245,-2.35165 -6.525298,-4.48167 -1.811691,-2.38051 -2.552894,-5.38179 -3.267403,-8.2867 -0.556391,-2.26207 -1.126504,-4.53351 -2.050473,-6.67192 -0.923968,-2.13841 -2.225541,-4.15596 -4.036557,-5.62114 -2.254774,-1.82419 -5.131372,-2.67394 -7.960463,-3.31263 -2.829091,-0.63869 -5.731844,-1.12117 -8.352243,-2.36423 -3.853095,-1.82782 -6.79133,-5.16363 -9.131352,-8.72896 -1.938222,-2.95313 -3.55176,-6.14161 -4.530962,-9.53555 -0.979202,-3.39395 -1.31079,-7.00246 -0.707521,-10.48294 0.714924,-4.12466 2.697918,-7.91974 3.741774,-11.97367 1.564727,-6.07679 0.914777,-12.7119 -1.870887,-18.33469 -1.90074,-3.8366 -4.770762,-7.25627 -5.799748,-11.41241 -0.649128,-2.62186 -0.512813,-5.40443 0.171664,-8.01729 0.684477,-2.61286 1.902839,-5.06464 3.38302,-7.32398 2.311266,-3.5279 5.289804,-6.63197 8.793168,-8.98026 3.645359,-2.44347 7.806246,-4.04715 11.412408,-6.5481 5.08928,-3.529529 10.275473,-9.211674 12.020448,-15.154183"
             id="path62013" /></g></g><g
         id="g13885"
         transform="matrix(5.5533348,0,0,5.5533348,-993.5825,94.354767)"><path
           d="m 199.60531,8.7371352 c 0,-2.7828589 2.25596,-5.038825 5.03882,-5.038825 2.78286,0 5.03882,2.2559661 5.03882,5.038825 0,2.7828588 -2.25596,5.0388248 -5.03882,5.0388248 -2.78286,0 -5.03882,-2.255966 -5.03882,-5.0388248 z"
           fill="#4472c4"
           fill-rule="evenodd"
           id="path14193"
           style="fill:#dd0029;fill-opacity:1;stroke-width:0.020995" /><path
           d="m 199.24768,8.7371352 c 0,-2.9803723 2.41608,-5.3964555 5.39645,-5.3964555 2.98037,0 5.39645,2.4160832 5.39645,5.3964555 0,2.9803718 -2.41608,5.3964558 -5.39645,5.3964558 -2.98037,0 -5.39645,-2.416084 -5.39645,-5.3964558 z"
           fill="#4472c4"
           fill-rule="evenodd"
           id="path26857"
           style="display:inline;fill:#dd0029;fill-opacity:1;stroke-width:0.0224851" /><path
           id="path18674"
           style="fill:#f2f302;fill-opacity:1;stroke:none;stroke-width:0.168959px;stroke-linecap:butt;stroke-linejoin:miter;stroke-opacity:1"
           d="m 773.62305,15.613281 c -3.32712,2.170513 -5.46018,4.36981 -5.53835,7.134667 -0.10962,3.87719 3.39438,6.442783 5.37428,10.273536 -0.34318,-0.03156 -0.68573,-0.04767 -1.02343,-0.04492 -1.96917,0.01576 -3.80136,0.644266 -4.97071,2.230469 -0.32617,0.442508 -0.51562,1.297176 -0.51562,1.847657 v 14.96875 h 2.0664 v 1.28906 h 10.375 v -1.289062 h 2.42579 v -13.9375 c -0.034,-1.33054 -1.85355,-2.916119 -4.23829,-3.964844 1.31529,-1.345814 2.51124,-3.165512 2.4613,-5.306658 -0.10415,-4.464528 -6.00191,-7.247173 -6.41637,-13.201155 z m -0.15235,19.521485 c 0.32353,-0.0032 0.64662,0.01051 0.96289,0.03906 0.15988,0.406403 0.31254,0.827409 0.45703,1.263672 0.3772,-0.291228 0.7861,-0.613623 1.20313,-0.960938 2.33072,0.643561 3.04174,1.896822 2.94336,2.648438 -0.11717,0.894815 -1.17165,1.943249 -4.41992,1.671875 -2.45212,-0.20485 -5.45867,-1.865912 -4.86914,-3.226563 0.42187,-0.973658 2.06148,-1.418726 3.72265,-1.435546 z"
           transform="scale(0.26458332)" /><path
           id="path13998"
           style="fill:#ffffff;fill-opacity:1;fill-rule:evenodd;stroke-width:0.00894537"
           d="m 204.64411,-2.5828914 -3.32676,6.7410203 -7.43917,1.0809242 5.38306,5.2471099 -1.27084,7.409045 6.65371,-3.498161 6.6538,3.498161 -1.27083,-7.409045 5.38306,-5.2471099 -7.43917,-1.0809242 z m 0,6.2812344 c 2.78286,0 5.03888,2.2559241 5.03888,5.0387833 0,2.7828587 -2.25602,5.0388697 -5.03888,5.0388697 -2.78286,0 -5.03878,-2.256011 -5.03878,-5.0388697 0,-2.7828592 2.25592,-5.0387833 5.03878,-5.0387833 z" /></g></g><g
       id="g27"
       transform="matrix(0.17104452,0,0,0.17104452,14.296038,27.421634)"><path
         id="path47"
         style="font-size:10.7365px;line-height:1.25;font-family:KongshoOMJ;-inkscape-font-specification:KongshoOMJ;fill:#ffffff;stroke-width:0.823522"
         d="m 112.65202,324.87746 c -3.3256,-3.4e-4 -8.37927,1.73321 -8.37927,7.09189 H 80.733054 v 1.84391 l 1.985036,-0.0285 c 0,3.21331 4.960989,2.14347 4.960989,4.00018 0,1.70087 -3.1996,1.42436 -4.907095,0.31234 v 1.84393 c 1.099367,1.41389 6.292924,1.57241 6.974544,-1.70284 1.193392,-1.36449 2.673127,-0.0448 2.673127,1.56012 v 0.68177 c -3.148217,-0.40852 -5.650652,0.91648 -5.650652,3.03462 0,1.88189 1.898208,2.26709 3.115463,2.24185 l 1.101908,-1.87242 c -2.975408,0.69642 -3.050108,-1.64575 0.524808,-1.64575 2.907876,0 5.023473,5.04976 -2.398823,5.04976 0.110388,0 -0.882704,-0.028 -2.977554,-0.0856 l 0.965572,2.83641 c 3.05044,0.51063 5.954231,1.7399 8.710647,3.68784 l 1.571193,-1.13361 v -0.002 c -2.205027,-1.53189 -4.465699,-2.76115 -6.78111,-3.68784 6.727699,-0.71489 6.477955,-5.95174 4.023965,-7.50252 v -7.5881 h 4.079466 v 13.58758 h 2.260882 v -13.58716 h 3.27877 v 13.5321 h 2.28787 v -13.5321 h 2.01355 v -1.84392 h -2.01355 c 0,-3.40332 2.77773,-5.13538 6.53378,-5.13538 2.2235,0 4.95167,0.95645 8.18587,2.86654 l 1.21286,-1.47608 c -3.98114,-2.39341 -6.25142,-3.34659 -9.81255,-3.34696 z m 7.30435,7.09189 v 3.34695 c -2.77901,-4.18183 -8.59283,-4.17511 -11.96249,-0.6231 l 0.66115,1.6172 c 2.88125,0.28231 2.23334,2.52355 1.4063,4.0842 l 1.04645,1.53158 c 3.12393,-1.56971 5.88956,-2.85515 8.29683,-3.85748 0.45939,0.43498 0.55176,1.8906 0.55176,4.36799 v 4.90867 h 2.26088 v -13.5321 h 19.23984 v -1.84391 z m 31.53367,0.0285 -1.48876,1.72976 c 3.75983,1.535 9.84108,5.07546 9.84108,8.39671 0,1.61916 -1.6125,3.06474 -3.3089,3.06474 -1.87056,0 -3.99541,-0.91073 -3.99541,-2.60969 0,-1.17349 1.62042,-1.36544 2.42419,0.36784 l 1.68222,-1.4745 c -1.93889,-3.46815 -6.72562,-2.28359 -6.72562,1.07812 0,2.98431 3.06291,4.7945 6.3673,4.7945 3.25029,0 6.2024,-1.76571 6.2024,-4.85159 0,-4.75662 -5.84248,-8.12695 -10.9985,-10.49589 z m 16.78552,0.0285 -2.09442,1.02104 c 1.98226,3.4069 11.054,4.81394 11.054,8.53942 0,1.96683 -1.32882,2.94901 -3.5832,2.94901 1.95679,-3.50224 -1.04018,-5.70142 -3.50076,-5.70142 -5.13311,0 -5.7037,6.13804 -2.26088,7.31859 l 1.40634,-1.7012 c -2.03232,-0.90319 -1.28954,-3.37709 0.60564,-3.37709 2.56613,0 2.93615,2.37028 1.1574,3.37709 l 0.96554,2.43847 c 3.62286,0 7.74511,-1.39616 7.74511,-5.10525 0,-6.05234 -8.71797,-5.87511 -11.49477,-9.75866 z m 21.25341,0.057 v 7.5168 l 1.98346,1.39045 5.51271,-1.84391 c 0.99058,2.60627 -1.13844,6.26902 -4.93401,6.26902 -3.63845,0 -6.40413,-2.46817 -8.29686,-7.40422 l -1.95649,1.07811 c 1.16775,2.96919 3.90188,8.25562 10.17091,8.25562 6.39626,0 8.03735,-5.21347 7.4153,-9.04993 l -1.76466,-1.47608 -5.898,1.901 v -6.60991 z m 19.41743,0.60249 c -3.67042,0 -6.62098,3.11084 -6.62098,6.85564 0,3.74483 2.95056,6.8604 6.62098,6.8604 3.67039,0 6.62097,-3.11557 6.62097,-6.8604 0,-3.7448 -2.95058,-6.85564 -6.62097,-6.85564 z m -123.80251,1.1273 h 7.220268 v 2.89349 c -0.770261,-0.66066 -1.846007,-1.11388 -3.004471,-0.16963 -0.491661,-1.31473 -4.215797,-1.45729 -4.215797,-2.72386 z m 29.1634,0.3044 c 2.09067,0.0676 3.56647,1.68095 3.77503,2.19273 l -5.56824,2.49553 c 0.38627,-0.83166 0.77531,-2.66549 -1.37778,-3.57367 1.14267,-0.85672 2.22065,-1.14531 3.17099,-1.11459 z m 18.68809,0.2632 c -6.15886,1.2e-4 -5.27223,6.12266 -1.61245,6.40058 l 1.22718,-1.72657 c -1.87144,0.11889 -2.84055,-2.63192 0.13634,-2.63192 5.91074,0 6.24704,8.99288 0.41382,8.99288 -2.22354,0 -5.15543,-2.05255 -7.47081,-6.15644 l -1.32229,1.58866 c 1.79524,3.38306 4.48826,6.58133 8.7931,6.58133 9.35785,0 7.68885,-13.04868 -0.16489,-13.04852 z m 75.95102,0.74357 c 2.29651,0 4.1825,1.93316 4.1825,4.41717 0,2.48401 -1.88599,4.42193 -4.1825,4.42193 -2.29654,0 -4.1825,-1.93792 -4.1825,-4.42193 0,-2.48401 1.88596,-4.41717 4.1825,-4.41717 z"
         transform="translate(-27.516667,183.09167)" /><path
         id="path21"
         style="font-size:10.7365px;line-height:1.25;font-family:KongshoOMJ;-inkscape-font-specification:KongshoOMJ;fill:#ffffff;stroke-width:1.14405"
         d="m 31.653706,389.47041 1.685,2.1277 c 12.92418,-9.74223 22.35091,-1.35414 20.98409,2.68057 h -109.2109 v 2.56161 h 23.74168 v 13.71549 c -0.641,-1.00735 -1.66015,-1.58569 -2.64311,-2.20696 0.0256,-7.17253 -2.6031,-10.75966 -7.88746,-10.75966 -3.18383,0 -6.51087,1.71428 -6.51087,4.80827 0,1.12354 0.96528,4.86443 5.13207,4.0197 l 0.99554,-2.52196 c -0.42026,0.13017 -2.94923,0.49738 -2.94923,-1.45814 0,-1.53998 1.51161,-2.48231 3.44702,-2.48231 3.11154,0 4.86333,2.47267 4.86333,5.51528 0,2.79982 -2.06029,5.9514 -5.16949,5.9514 -4.55457,0 -8.99074,-4.31032 -10.30152,-8.51301 l -1.87437,1.81274 c 2.25909,5.16668 6.62906,9.30154 12.253,9.30154 2.32306,0 5.07461,-1.05354 6.43376,-3.11228 1.82161,0.81057 4.386,3.06787 4.44039,4.80606 h 2.91185 v -18.87616 h 4.93818 v 18.87616 h 3.14091 v -18.87616 h 3.40738 v 10.71997 l 2.45149,2.24665 c 4.2887803,-3.3104 7.6070803,-5.39935 9.9557203,-6.26635 -1.19275,4.56063 -1.50045,8.83138 0.84137,12.96441 l 2.37438003,-1.02417 c -1.88443003,-4.56327 -1.72050003,-7.02669 0.76653,-12.57241 l -2.79511003,-3.38758 c -3.1655,1.12977 -6.64974,2.83748 -10.4534703,5.12323 v -7.80375 H 2.2073563 v 2.28406 c 0.38276,0 0.8921,-0.0345 1.5308,-0.0388 5.83342,-0.0217 6.05054,3.67482 6.05054,4.29519 -3.73285,-0.34896 -7.31482,1.89282 -7.31482,5.71574 0,2.80202 3.40121,7.35855 9.9182597,4.17609 l -0.91848,-2.71801 c -5.4005497,1.9557 -5.5901697,-1.13357 -5.5901697,-1.57704 0,-1.6221 2.00416,-2.72021 3.79064,-2.72021 3.3506197,0 9.7640897,4.22301 9.7640897,7.40953 v 2.0484 h 3.14091 v -18.87617 h 11.21778 c -6.72731,8.0951 1.50462,13.50665 6.20467,8.66936 1.23047,1.89979 0.20416,6.11001 -4.97786,6.11001 -3.68759,0 -6.35453,-3.74894 -7.65836,-7.56809 l -1.91627,1.69599 c 2.39965,5.70126 5.64209,8.55041 9.72662,8.55041 10.82313,0 8.17963,-10.60192 7.39188,-11.70454 h -2.9867 c -3.27381,4.72953 -9.6352,-0.24994 -1.30174,-5.67384 0.69684,3.42031 5.00343,5.63925 8.6914,5.9888 -1.9883,5.03311 -2.63693,9.97512 0.42069,13.83449 l 2.18275,-1.10352 c -2.92877,-3.15828 -1.53565,-9.30037 1.03518,-13.12523 l -2.14533,-2.48231 c -0.50764,0.0873 -5.69865,0.87587 -6.96898,-3.19157 h 12.82785 v 18.79906 h 3.17833 v -18.79906 h 2.6409 v -2.56162 h -2.68054 c 0.62055,-3.51124 -2.88231,-7.86532 -8.38102,-9.4827 -4.24944,-1.24994 -9.93202,-1.03451 -17.42671,4.67582 z m 90.982334,0.31477 0.99554,2.1299 c 3.75258,-2.2911 13.67595,-4.96211 13.67148,2.36341 H 69.064656 v 2.56161 h 12.52173 v 0.90527 c -3.8978,2.11538 -7.88566,4.07652 -11.60325,6.50422 l 0.92069,3.23122 c 4.51583,0 8.60326,3.78711 11.06583,8.2751 h 2.8347 v -15.21107 c 4.22033,0 6.04833,1.50977 6.04833,3.50654 0,2.06418 -1.92548,2.54263 -4.2488,2.40374 v 2.83692 c 3.56905,0 7.23772,-1.4961 7.23772,-5.1234 0,-3.93482 -4.94837,-6.42271 -9.03725,-6.42271 v -0.90748 h 14.35869 c -2.40558,3.00435 -2.45835,5.88875 -0.49779,9.77289 2.423524,4.80139 2.111704,6.56752 -2.56602,7.36984 v 2.52196 c 9.101694,-0.84253 7.742584,-5.56604 5.744354,-10.0482 -2.103564,-4.77388 -1.955874,-6.39672 0.61232,-9.61649 h 5.20913 v 18.87617 h 3.13869 v -18.87617 h 12.6759 v 6.18706 c -5.07913,-5.65347 -10.64515,-2.30939 -10.64515,1.30174 0,3.7558 3.719,5.06791 6.73776,3.66509 l -1.14758,-2.44487 c -3.26443,1.68026 -3.89776,-3.15192 -0.11465,-3.15192 1.60828,0 3.33143,1.14144 5.16949,3.42723 v 9.8918 c 0.91899,0.026 1.71062,0.0388 2.37438,0.0388 11.8494,0 15.62296,-5.62242 15.62296,-9.26187 0,-7.94662 -9.03571,-5.64284 -11.068,-4.0968 l 1.2644,2.56175 c 3.28561,-1.64251 6.6254,-2.31614 6.6254,1.7334 0,1.79506 -2.51261,6.47118 -11.71779,6.18784 v -16.03925 h 33.50578 v 11.42923 c -2.70599,-3.94096 -6.07638,-5.91174 -10.10989,-5.91174 -3.55563,0 -6.2025,2.67853 -6.2025,5.91174 0,5.34989 6.03499,6.74571 9.2663,5.08357 l -0.91847,-2.72004 c -2.84311,1.12428 -5.13203,-0.31651 -5.13203,-2.44257 0,-1.77495 1.69898,-2.87657 3.36996,-2.87657 3.847,0 9.72663,5.16815 9.72663,8.74866 v 1.65414 h 3.1409 v -18.87616 h 8.72883 c -3.72799,2.86615 -6.01086,6.90431 -6.01086,10.68032 0,10.84446 10.08358,9.96937 11.98647,9.02402 v -3.03518 c -3.72709,1.93961 -8.92267,0.75337 -8.92267,-6.3831 0,-4.06748 4.39585,-8.90178 8.4271,-10.28606 h 1.25988 v 2.28405 c 0.38276,0 0.89427,-0.0388 1.53301,-0.0388 6.19623,0 6.05051,3.68814 6.05051,4.29518 -3.73281,-0.34895 -7.31478,1.89282 -7.31478,5.71574 0,2.80198 3.40116,7.3586 9.91825,4.1761 l -0.91847,-2.71801 c -5.22183,2.21081 -5.5924,-1.143 -5.5924,-1.57704 0,-1.6221 2.00417,-2.72022 3.79065,-2.72022 3.3527,0 9.76631,4.22276 9.76631,7.40953 v 2.0484 h 3.13869 v -18.87616 h 12.13843 v 6.18705 c -1.57841,-1.75852 -3.14453,-2.99552 -5.47561,-2.99552 -8.2477,0 -5.59576,11.29246 1.57043,7.96235 l -1.14753,-2.44487 c -3.26421,1.68008 -3.8987,-3.15192 -0.11679,-3.15192 1.60829,0 3.33144,1.14145 5.1695,3.42723 v 9.8918 c 0.91903,0.026 1.71066,0.0388 2.37438,0.0388 11.43298,0 15.62296,-5.20559 15.62296,-9.26187 0,-7.74066 -9.02894,-5.6463 -11.06579,-4.0968 l 1.26428,2.56161 c 3.28561,-1.64251 6.62539,-2.31614 6.62539,1.7334 0,1.80184 -2.52697,6.47122 -11.71778,6.18783 v -16.03924 h 16.96212 v -2.56162 h -3.0638 c 0,-5.36623 -6.99779,-10.77151 -17.84318,-4.49331 l 0.99558,2.12991 c 3.60827,-2.30935 13.74914,-4.88424 13.66927,2.3634 h -84.54857 c 0,-5.29683 -6.93969,-10.80338 -17.84534,-4.49032 z m 117.06093,4.49331 v 2.56161 h 12.52169 v 0.90527 c -3.8978,2.11538 -7.88562,4.07652 -11.60322,6.50422 l 0.92069,3.23122 c 4.51584,0 8.60322,3.78711 11.06579,8.2751 h 2.83253 v -15.21107 c 4.03347,0.34158 6.05051,1.50977 6.05051,3.50654 0,2.16527 -1.92544,2.54263 -4.2488,2.40374 v 2.83692 c 3.40721,0.46556 7.23549,-1.4881 7.23549,-5.1234 0,-3.94139 -4.95309,-6.42271 -9.0372,-6.42271 v -0.90748 h 16.96434 c -3.72838,2.78097 -6.01086,6.89022 -6.01086,10.68032 0,9.4262 8.48383,10.76308 11.98426,9.02402 v -3.03517 c -2.13357,1.37636 -8.92268,1.94669 -8.92268,-6.07334 0,-4.06769 4.39585,-9.21124 8.4271,-10.59583 h 21.02151 v 7.21128 c -0.76764,-1.84361 -4.2505,-4.12936 -7.88967,0.90748 -1.30195,-2.02306 -2.97302,-3.03518 -5.01528,-3.03518 -9.1522,0 -9.45107,13.78182 1.22463,12.92714 l 1.07264,-2.95587 c -7.61198,1.30364 -6.72556,-7.01527 -2.33691,-7.01527 1.92543,0 3.21797,2.18798 3.21797,3.86335 h 3.48449 c 0,-1.35929 1.30135,-3.62769 3.02416,-3.62769 2.29753,0 3.44702,2.15581 3.44702,6.46461 v 4.13645 h 2.75765 v -18.87616 h 11.21999 c -6.5898,7.9297 1.40173,13.61029 6.2025,8.66936 1.23853,1.91224 0.19265,6.11 -4.97786,6.11 -3.68763,0 -6.35458,-3.74898 -7.6584,-7.56809 l -1.91406,1.696 c 2.3997,5.70125 5.64209,8.55041 9.72667,8.55041 10.82091,0 8.18295,-10.5941 7.38966,-11.70454 h -2.9867 c -3.44152,5.15466 -9.34029,-0.37922 -1.30174,-5.67384 0.69684,3.42031 5.00344,5.63925 8.69141,5.9888 -1.84535,4.96159 -2.75611,10.11803 0.42068,13.83448 l 2.18279,-1.10352 c -2.71438,-3.27744 -1.22587,-9.22888 1.03514,-13.12522 l -2.14529,-2.48231 c -0.50094,0.0861 -5.69822,0.87733 -6.96902,-3.19158 h 11.02837 v -2.56159 z M 8.0640163,396.8401 H 19.438176 v 11.50853 c -2.27205,-2.39086 -4.30097,-3.88903 -6.08797,-4.49331 0,-2.86377 -1.7633,-5.20244 -5.2861897,-7.01522 z m 176.4911337,0 h 11.37421 v 11.50853 c -2.27205,-2.39086 -4.30319,-3.88903 -6.09019,-4.49331 0,-2.86377 -1.76108,-5.20244 -5.28402,-7.01522 z m -102.891654,4.05935 v 10.48211 c -2.03796,-2.1498 -3.96008,-4.43221 -6.50866,-5.9888 2.09333,-2.2332 4.26214,-3.73138 6.50866,-4.49331 z m 170.632264,0 v 10.48211 c -2.03796,-2.15079 -3.96127,-4.43243 -6.51083,-5.9888 2.09333,-2.2332 4.26432,-3.73138 6.51083,-4.49331 z" /><path
         id="path15"
         style="font-size:10.7365px;line-height:1.25;font-family:KongshoOMJ;-inkscape-font-specification:KongshoOMJ;fill:#ffffff;stroke-width:0.889271"
         d="m 503.21479,149.1954 c -1.97639,0.0232 -4.32421,0.66138 -6.97325,2.19484 l 0.77387,1.65561 c 2.91682,-1.78088 10.63034,-3.85708 10.62687,1.83705 h -53.04184 v 1.99117 h 9.73313 v 0.70366 c -3.02975,1.64424 -6.12949,3.16868 -9.01919,5.05574 l 0.71562,2.51164 c 3.51017,0 6.68734,2.94372 8.60148,6.43225 h 2.20343 v -11.82361 c 3.28054,0 4.70138,1.17352 4.70138,2.72563 0,1.60448 -1.49668,1.97584 -3.3026,1.86788 v 2.20514 c 2.77426,0 5.62588,-1.16277 5.62588,-3.98231 0,-3.05852 -3.84633,-4.99236 -7.02466,-4.99236 v -0.70539 h 11.16103 c -1.86986,2.33528 -1.91085,4.5773 -0.38694,7.59647 1.88385,3.73213 1.64147,5.10498 -1.99455,5.72859 v 1.96035 c 7.07475,-0.6549 6.01831,-4.32651 4.46508,-7.81049 -1.63507,-3.71072 -1.5203,-4.97216 0.47596,-7.47492 h 4.04909 v 14.67248 h 2.43969 v -14.67248 h 9.853 v 4.80922 c -3.94803,-4.39446 -8.27449,-1.79512 -8.27449,1.01185 0,2.91936 2.89078,3.93933 5.23727,2.84887 l -0.89199,-1.90041 c -2.53747,1.30608 -3.02968,-2.44995 -0.0892,-2.44995 1.25012,0 2.58957,0.8872 4.01825,2.66396 v 7.68894 c 0.71438,0.0199 1.3297,0.0298 1.84562,0.0298 9.21058,0 12.14375,-4.37036 12.14375,-7.19927 0,-6.17691 -7.02346,-4.38623 -8.60318,-3.18444 l 0.98273,1.99115 c 2.55391,-1.27673 5.14993,-1.80033 5.14993,1.34739 0,1.39526 -1.95308,5.02946 -9.10826,4.80922 v -12.46734 h 26.0441 v 8.88395 c -2.10336,-3.06333 -4.72321,-4.59522 -7.85844,-4.59522 -2.76381,0 -4.8212,2.08203 -4.8212,4.59522 0,4.15847 4.69097,5.24343 7.20273,3.95147 l -0.71392,-2.11443 c -2.20998,0.87391 -3.98917,-0.24616 -3.98917,-1.89869 0,-1.37966 1.32066,-2.23596 2.61948,-2.23596 2.99031,0 7.56052,4.01723 7.56052,6.80037 v 1.28576 h 2.44143 v -14.67247 h 6.78497 c -2.89785,2.22783 -4.67225,5.36673 -4.67225,8.30184 0,8.42941 7.83795,7.74924 9.3171,7.01437 v -2.35924 c -2.8971,1.50768 -6.93565,0.58559 -6.93565,-4.96161 0,-3.16163 3.41694,-6.91941 6.55041,-7.99536 h 0.97931 v 1.7754 c 0.29752,0 0.69518,-0.0298 1.19161,-0.0298 4.81637,0 4.70307,2.86671 4.70307,3.33855 -2.90156,-0.27133 -5.68579,1.4713 -5.68579,4.44286 0,2.17801 2.64376,5.71982 7.70948,3.24611 l -0.71394,-2.11271 c -4.05894,1.71845 -4.34694,-0.88846 -4.34694,-1.22584 0,-1.26092 1.55784,-2.1144 2.94643,-2.1144 2.60603,0 7.59134,3.28233 7.59134,5.75941 v 1.59223 h 2.43972 v -14.67249 h 9.43528 v 4.80921 c -1.22688,-1.3669 -2.44425,-2.32842 -4.25624,-2.32842 -6.41088,0 -4.34952,8.77765 1.22071,6.18915 l -0.89198,-1.90041 c -2.53724,1.30597 -3.03043,-2.44995 -0.0907,-2.44995 1.25012,0 2.58949,0.88724 4.01825,2.66397 v 7.68894 c 0.71434,0.0199 1.32967,0.0298 1.84558,0.0298 8.88691,0 12.14375,-4.04628 12.14375,-7.19926 0,-6.01683 -7.0182,-4.3889 -8.60145,-3.18446 l 0.98275,1.99115 c 2.55388,-1.27671 5.1499,-1.80031 5.1499,1.3474 0,1.40056 -1.96418,5.0295 -9.10822,4.80921 v -12.46734 h 13.18468 v -1.99115 h -2.38149 c 0,-4.17116 -5.43939,-8.37269 -13.86953,-3.4926 l 0.77383,1.65558 c 2.80475,-1.79506 10.68727,-3.79655 10.62518,1.83702 h -65.71974 c 0,-2.83059 -2.54984,-5.7378 -6.89799,-5.68406 z m -55.6681,5.68578 -49.1708,8.8e-4 v 1.99116 h 1.75487 v 14.67417 c 0.19846,0.0613 0.893,0.0908 2.08358,0.0908 5.29041,0 11.60959,-2.44859 11.60959,-7.65813 0,-4.79206 -6.03094,-5.24714 -8.72129,-3.03208 l 1.04094,2.02196 c 3.66455,-2.14482 4.94786,-0.10871 4.94786,1.01012 0,3.93907 -5.22849,5.1875 -8.49016,5.36051 V 156.8736 h 14.25818 v 14.67245 h 2.43968 V 156.8736 h 11.13191 v 0.70367 c -3.02963,1.64357 -6.12838,3.16862 -9.0175,5.05573 l 0.71392,2.51165 c 3.49142,0 6.66961,2.91132 8.60149,6.43226 h 2.20342 V 159.7533 c 1.88837,0.15992 3.20001,0.64187 3.9922,1.23723 1.12532,0.84572 1.20245,1.92028 0.39555,2.62566 -0.57183,0.49989 -1.58763,0.81436 -2.98897,0.73059 v 2.20516 c 7.41412,1.01349 7.5801,-8.97467 -1.39878,-8.97467 v -0.7054 h 9.82223 v 14.67249 h 2.44139 v -14.67249 h 2.35069 z m 96.82471,1.99289 h 8.84113 v 8.94557 c -1.76603,-1.85842 -3.34484,-3.02294 -4.73388,-3.49263 0,-2.22602 -1.36893,-4.04386 -4.10725,-5.45294 z m -113.88041,3.15533 v 8.14776 c -1.58041,-1.67546 -3.07817,-3.44523 -5.05919,-4.6551 1.62714,-1.73587 3.31296,-2.90043 5.05919,-3.49266 z m 33.90252,0 v 8.14776 c -1.58414,-1.67105 -3.07817,-3.44519 -5.05919,-4.6551 1.62715,-1.7359 3.31297,-2.90043 5.05919,-3.49266 z"
         transform="translate(-355.6,301.625)" /></g></g><metadata
     id="metadata27"><rdf:RDF><cc:Work
         rdf:about=""><dc:title>Adamjee Cantonment College - আদমজী ক্যান্টনমেন্ট কলেজ</dc:title></cc:Work></rdf:RDF></metadata></svg>
