<?xml version="1.0" encoding="UTF-8"?>
<svg id="Layer_1" data-name="Layer 1" xmlns="http://www.w3.org/2000/svg" xmlns:xlink="http://www.w3.org/1999/xlink" viewBox="0 0 381.32 408.18">
  <defs>
    <style>
      .cls-1 {
        fill: url(#linear-gradient-61);
      }

      .cls-2 {
        fill: url(#linear-gradient-15);
      }

      .cls-3 {
        fill: url(#linear-gradient-13);
      }

      .cls-4 {
        fill: url(#linear-gradient-28);
      }

      .cls-5 {
        fill: url(#linear-gradient-65);
      }

      .cls-6 {
        fill: url(#linear-gradient-69);
      }

      .cls-7 {
        fill: url(#linear-gradient-53);
      }

      .cls-8 {
        fill: url(#linear-gradient-42);
      }

      .cls-9 {
        fill: url(#linear-gradient-46);
      }

      .cls-10 {
        fill: url(#linear-gradient-70);
      }

      .cls-11 {
        fill: url(#linear-gradient-60);
      }

      .cls-12 {
        fill: url(#linear-gradient-93);
      }

      .cls-13 {
        fill: url(#linear-gradient-95);
      }

      .cls-14 {
        fill: url(#linear-gradient-2);
      }

      .cls-15 {
        fill: url(#linear-gradient-100);
      }

      .cls-16 {
        fill: url(#linear-gradient-87);
      }

      .cls-17 {
        fill: url(#linear-gradient-64);
      }

      .cls-18 {
        fill: url(#linear-gradient-56);
      }

      .cls-19 {
        fill: url(#linear-gradient-43);
      }

      .cls-20 {
        fill: url(#linear-gradient-25);
      }

      .cls-21 {
        fill: url(#linear-gradient-82);
      }

      .cls-22 {
        fill: url(#linear-gradient-10);
      }

      .cls-23 {
        fill: url(#linear-gradient-12);
      }

      .cls-24 {
        fill: url(#linear-gradient-40);
      }

      .cls-25 {
        fill: url(#linear-gradient-27);
      }

      .cls-26 {
        fill: url(#linear-gradient-68);
      }

      .cls-27 {
        fill: url(#linear-gradient-37);
      }

      .cls-28 {
        fill: url(#linear-gradient-75);
      }

      .cls-29 {
        fill: url(#linear-gradient-55);
      }

      .cls-30 {
        fill: url(#linear-gradient-39);
      }

      .cls-31 {
        fill: url(#linear-gradient-89);
      }

      .cls-32 {
        fill: url(#linear-gradient-52);
      }

      .cls-33 {
        fill: url(#linear-gradient-58);
      }

      .cls-34 {
        fill: url(#linear-gradient-47);
      }

      .cls-35 {
        fill: url(#linear-gradient-26);
      }

      .cls-36 {
        fill: url(#linear-gradient-74);
      }

      .cls-37 {
        fill: url(#linear-gradient-97);
      }

      .cls-38 {
        fill: url(#linear-gradient-72);
      }

      .cls-39 {
        fill: url(#linear-gradient-4);
      }

      .cls-40 {
        fill: url(#linear-gradient-35);
      }

      .cls-41 {
        fill: url(#linear-gradient-30);
      }

      .cls-42 {
        fill: url(#linear-gradient-76);
      }

      .cls-43 {
        fill: url(#linear-gradient-73);
      }

      .cls-44 {
        fill: url(#linear-gradient-71);
      }

      .cls-45 {
        fill: url(#linear-gradient-44);
      }

      .cls-46 {
        fill: url(#linear-gradient-96);
      }

      .cls-47 {
        fill: url(#linear-gradient-49);
      }

      .cls-48 {
        fill: url(#linear-gradient-3);
      }

      .cls-49 {
        fill: url(#linear-gradient-34);
      }

      .cls-50 {
        fill: url(#linear-gradient-5);
      }

      .cls-51 {
        fill: url(#linear-gradient-38);
      }

      .cls-52 {
        fill: url(#linear-gradient-91);
      }

      .cls-53 {
        fill: url(#linear-gradient-22);
      }

      .cls-54 {
        fill: url(#linear-gradient-24);
      }

      .cls-55 {
        fill: url(#linear-gradient-94);
      }

      .cls-56 {
        fill: url(#linear-gradient-54);
      }

      .cls-57 {
        fill: url(#linear-gradient-92);
      }

      .cls-58 {
        fill: url(#linear-gradient-90);
      }

      .cls-59 {
        fill: url(#linear-gradient-33);
      }

      .cls-60 {
        fill: url(#linear-gradient-79);
      }

      .cls-61 {
        fill: url(#linear-gradient-78);
      }

      .cls-62 {
        fill: url(#linear-gradient-51);
      }

      .cls-63 {
        fill: url(#linear-gradient-8);
      }

      .cls-64 {
        fill: url(#linear-gradient-66);
      }

      .cls-65 {
        fill: url(#linear-gradient-57);
      }

      .cls-66 {
        fill: url(#linear-gradient-77);
      }

      .cls-67 {
        fill: url(#linear-gradient-103);
      }

      .cls-68 {
        fill: url(#linear-gradient-88);
      }

      .cls-69 {
        fill: url(#linear-gradient-14);
      }

      .cls-70 {
        fill: url(#linear-gradient-62);
      }

      .cls-71 {
        fill: url(#linear-gradient-29);
      }

      .cls-72 {
        fill: url(#linear-gradient-20);
      }

      .cls-73 {
        fill: url(#linear-gradient-67);
      }

      .cls-74 {
        fill: url(#linear-gradient-17);
      }

      .cls-75 {
        fill: url(#linear-gradient-50);
      }

      .cls-76 {
        fill: url(#linear-gradient-7);
      }

      .cls-77 {
        fill: url(#linear-gradient-9);
      }

      .cls-78 {
        fill: url(#linear-gradient-104);
      }

      .cls-79 {
        fill: url(#linear-gradient-59);
      }

      .cls-80 {
        fill: url(#linear-gradient-11);
      }

      .cls-81 {
        fill: url(#linear-gradient-19);
      }

      .cls-82 {
        fill: url(#linear-gradient-101);
      }

      .cls-83 {
        fill: url(#linear-gradient-80);
      }

      .cls-84 {
        fill: url(#linear-gradient-6);
      }

      .cls-85 {
        fill: url(#linear-gradient-83);
      }

      .cls-86 {
        fill: url(#linear-gradient-105);
      }

      .cls-87 {
        fill: url(#linear-gradient-36);
      }

      .cls-88 {
        fill: url(#linear-gradient-21);
      }

      .cls-89 {
        fill: url(#linear-gradient-45);
      }

      .cls-90 {
        fill: url(#linear-gradient-85);
      }

      .cls-91 {
        fill: url(#linear-gradient-98);
      }

      .cls-92 {
        fill: url(#linear-gradient-81);
      }

      .cls-93 {
        fill: url(#linear-gradient-84);
      }

      .cls-94 {
        fill: url(#linear-gradient-48);
      }

      .cls-95 {
        fill: url(#linear-gradient-102);
      }

      .cls-96 {
        fill: url(#linear-gradient-32);
      }

      .cls-97 {
        fill: url(#linear-gradient-86);
      }

      .cls-98 {
        fill: url(#linear-gradient-41);
      }

      .cls-99 {
        fill: url(#linear-gradient-16);
      }

      .cls-100 {
        fill: url(#linear-gradient);
      }

      .cls-101 {
        fill: url(#linear-gradient-23);
      }

      .cls-102 {
        fill: url(#linear-gradient-31);
      }

      .cls-103 {
        fill: url(#linear-gradient-63);
      }

      .cls-104 {
        fill: url(#linear-gradient-99);
      }

      .cls-105 {
        fill: url(#linear-gradient-18);
      }
    </style>
    <linearGradient id="linear-gradient" x1="24.59" y1="8.84" x2="131.44" y2="284.59" gradientUnits="userSpaceOnUse">
      <stop offset=".17" stop-color="#b4d569"/>
      <stop offset=".57" stop-color="#75c045"/>
    </linearGradient>
    <linearGradient id="linear-gradient-2" x1="-1.24" y1="18.85" x2="105.61" y2="294.6" xlink:href="#linear-gradient"/>
    <linearGradient id="linear-gradient-3" x1="-14" y1="23.8" x2="92.85" y2="299.54" xlink:href="#linear-gradient"/>
    <linearGradient id="linear-gradient-4" x1="-21.45" y1="26.68" x2="85.4" y2="302.43" xlink:href="#linear-gradient"/>
    <linearGradient id="linear-gradient-5" x1="-26.04" y1="28.46" x2="80.82" y2="304.21" xlink:href="#linear-gradient"/>
    <linearGradient id="linear-gradient-6" x1="-23.2" y1="27.36" x2="83.65" y2="303.11" xlink:href="#linear-gradient"/>
    <linearGradient id="linear-gradient-7" x1="-14.14" y1="23.85" x2="92.71" y2="299.6" xlink:href="#linear-gradient"/>
    <linearGradient id="linear-gradient-8" x1="3.66" y1="16.95" x2="110.52" y2="292.7" xlink:href="#linear-gradient"/>
    <linearGradient id="linear-gradient-9" x1="-3.87" y1="19.87" x2="102.98" y2="295.62" xlink:href="#linear-gradient"/>
    <linearGradient id="linear-gradient-10" x1="-6.36" y1="20.84" x2="100.49" y2="296.58" xlink:href="#linear-gradient"/>
    <linearGradient id="linear-gradient-11" x1="-3.44" y1="19.7" x2="103.41" y2="295.45" xlink:href="#linear-gradient"/>
    <linearGradient id="linear-gradient-12" x1="4.96" y1="16.45" x2="111.82" y2="292.19" xlink:href="#linear-gradient"/>
    <linearGradient id="linear-gradient-13" x1="15.54" y1="12.35" x2="122.39" y2="288.1" xlink:href="#linear-gradient"/>
    <linearGradient id="linear-gradient-14" x1="16.49" y1="11.98" x2="123.34" y2="287.73" xlink:href="#linear-gradient"/>
    <linearGradient id="linear-gradient-15" x1="1.78" y1="17.68" x2="108.63" y2="293.43" xlink:href="#linear-gradient"/>
    <linearGradient id="linear-gradient-16" x1="32.84" y1="5.65" x2="139.69" y2="281.39" xlink:href="#linear-gradient"/>
    <linearGradient id="linear-gradient-17" x1="18.9" y1="11.05" x2="125.75" y2="286.79" xlink:href="#linear-gradient"/>
    <linearGradient id="linear-gradient-18" x1="46" y1=".55" x2="152.85" y2="276.29" xlink:href="#linear-gradient"/>
    <linearGradient id="linear-gradient-19" x1="56.53" y1="-3.53" x2="163.38" y2="272.21" xlink:href="#linear-gradient"/>
    <linearGradient id="linear-gradient-20" x1="342.84" y1="-17.36" x2="342.84" y2="281.83" gradientUnits="userSpaceOnUse">
      <stop offset=".51" stop-color="#b4d569"/>
      <stop offset=".77" stop-color="#75c045"/>
    </linearGradient>
    <linearGradient id="linear-gradient-21" x1="357.06" y1="-17.36" x2="357.06" y2="281.83" xlink:href="#linear-gradient-20"/>
    <linearGradient id="linear-gradient-22" x1="358.86" y1="-17.36" x2="358.86" y2="281.82" xlink:href="#linear-gradient-20"/>
    <linearGradient id="linear-gradient-23" x1="356.01" y1="-17.36" x2="356.01" y2="281.83" xlink:href="#linear-gradient-20"/>
    <linearGradient id="linear-gradient-24" x1="348.61" y1="-17.36" x2="348.61" y2="281.83" xlink:href="#linear-gradient-20"/>
    <linearGradient id="linear-gradient-25" x1="332.9" y1="-17.36" x2="332.9" y2="281.82" xlink:href="#linear-gradient-20"/>
    <linearGradient id="linear-gradient-26" x1="312.37" y1="-17.36" x2="312.37" y2="281.83" xlink:href="#linear-gradient-20"/>
    <linearGradient id="linear-gradient-27" x1="299.11" y1="-17.36" x2="299.11" y2="281.83" xlink:href="#linear-gradient-20"/>
    <linearGradient id="linear-gradient-28" x1="318.22" y1="-17.36" x2="318.22" y2="281.83" xlink:href="#linear-gradient-20"/>
    <linearGradient id="linear-gradient-29" x1="331.95" y1="-17.36" x2="331.95" y2="281.83" xlink:href="#linear-gradient-20"/>
    <linearGradient id="linear-gradient-30" x1="339" y1="-17.36" x2="339" y2="281.83" xlink:href="#linear-gradient-20"/>
    <linearGradient id="linear-gradient-31" x1="340.45" y1="-17.36" x2="340.45" y2="281.83" xlink:href="#linear-gradient-20"/>
    <linearGradient id="linear-gradient-32" x1="339.55" y1="-17.36" x2="339.55" y2="281.83" xlink:href="#linear-gradient-20"/>
    <linearGradient id="linear-gradient-33" x1="275.52" y1="-17.36" x2="275.52" y2="281.83" xlink:href="#linear-gradient-20"/>
    <linearGradient id="linear-gradient-34" x1="285.06" y1="-17.36" x2="285.06" y2="281.83" xlink:href="#linear-gradient-20"/>
    <linearGradient id="linear-gradient-35" x1="250.26" y1="-17.36" x2="250.26" y2="281.83" xlink:href="#linear-gradient-20"/>
    <linearGradient id="linear-gradient-36" x1="259.1" y1="-17.36" x2="259.1" y2="281.82" xlink:href="#linear-gradient-20"/>
    <linearGradient id="linear-gradient-37" x1="224.49" y1="-17.36" x2="224.49" y2="281.83" xlink:href="#linear-gradient-20"/>
    <linearGradient id="linear-gradient-38" x1="219.01" y1="-17.36" x2="219.01" y2="281.82" xlink:href="#linear-gradient-20"/>
    <linearGradient id="linear-gradient-39" x1="271.68" y1="7.41" x2="80.96" y2="141.84" gradientUnits="userSpaceOnUse">
      <stop offset=".42" stop-color="#b4d569"/>
      <stop offset=".76" stop-color="#75c045"/>
    </linearGradient>
    <linearGradient id="linear-gradient-40" x1="188.61" y1="246.78" x2="171.38" y2="-57.69" gradientUnits="userSpaceOnUse">
      <stop offset=".39" stop-color="#75c045"/>
      <stop offset=".86" stop-color="#b4d569"/>
    </linearGradient>
    <linearGradient id="linear-gradient-41" x1="207.15" y1="245.73" x2="189.91" y2="-58.74" xlink:href="#linear-gradient-40"/>
    <linearGradient id="linear-gradient-42" x1="187.52" y1="246.84" x2="170.28" y2="-57.63" xlink:href="#linear-gradient-40"/>
    <linearGradient id="linear-gradient-43" x1="206.05" y1="245.79" x2="188.82" y2="-58.68" xlink:href="#linear-gradient-40"/>
    <linearGradient id="linear-gradient-44" x1="99.21" y1="162.57" x2="412.48" y2="185.55" gradientUnits="userSpaceOnUse">
      <stop offset=".23" stop-color="#75c045"/>
      <stop offset=".62" stop-color="#b4d569"/>
    </linearGradient>
    <linearGradient id="linear-gradient-45" x1="171.47" y1="135.57" x2="171.47" y2="209.25" gradientUnits="userSpaceOnUse">
      <stop offset="0" stop-color="#b4d569"/>
      <stop offset=".54" stop-color="#72bf44"/>
    </linearGradient>
    <linearGradient id="linear-gradient-46" x1="149.7" y1="135.57" x2="149.7" y2="209.25" xlink:href="#linear-gradient-45"/>
    <linearGradient id="linear-gradient-47" y1="135.57" y2="209.25" xlink:href="#linear-gradient-45"/>
    <linearGradient id="linear-gradient-48" x1="197.02" y1="135.57" x2="197.02" y2="209.25" xlink:href="#linear-gradient-45"/>
    <linearGradient id="linear-gradient-49" x1="198.6" y1="135.57" x2="198.6" y2="209.25" xlink:href="#linear-gradient-45"/>
    <linearGradient id="linear-gradient-50" x1="251.69" y1="135.57" x2="251.69" y2="209.25" xlink:href="#linear-gradient-45"/>
    <linearGradient id="linear-gradient-51" x1="230.92" y1="135.57" x2="230.92" y2="209.25" xlink:href="#linear-gradient-45"/>
    <linearGradient id="linear-gradient-52" x1="251.69" y1="135.57" x2="251.69" y2="209.25" xlink:href="#linear-gradient-45"/>
    <linearGradient id="linear-gradient-53" x1="192.58" y1="135.57" x2="192.58" y2="209.25" xlink:href="#linear-gradient-45"/>
    <linearGradient id="linear-gradient-54" x1="195.55" y1="135.57" x2="195.55" y2="209.25" xlink:href="#linear-gradient-45"/>
    <linearGradient id="linear-gradient-55" x1="196.15" y1="135.57" x2="196.15" y2="209.25" xlink:href="#linear-gradient-45"/>
    <linearGradient id="linear-gradient-56" x1="197.91" y1="135.57" x2="197.91" y2="209.25" xlink:href="#linear-gradient-45"/>
    <linearGradient id="linear-gradient-57" x1="201.65" y1="135.57" x2="201.65" y2="209.25" xlink:href="#linear-gradient-45"/>
    <linearGradient id="linear-gradient-58" x1="201.11" y1="135.57" x2="201.11" y2="209.25" xlink:href="#linear-gradient-45"/>
    <linearGradient id="linear-gradient-59" x1="205.47" y1="135.57" x2="205.47" y2="209.25" xlink:href="#linear-gradient-45"/>
    <linearGradient id="linear-gradient-60" x1="167.74" y1="135.57" x2="167.74" y2="209.25" xlink:href="#linear-gradient-45"/>
    <linearGradient id="linear-gradient-61" x1="166.74" y1="135.57" x2="166.74" y2="209.25" xlink:href="#linear-gradient-45"/>
    <linearGradient id="linear-gradient-62" x1="170.58" y1="135.57" x2="170.58" y2="209.25" xlink:href="#linear-gradient-45"/>
    <linearGradient id="linear-gradient-63" x1="171.98" y1="135.57" x2="171.98" y2="209.25" xlink:href="#linear-gradient-45"/>
    <linearGradient id="linear-gradient-64" x1="169.06" y1="135.57" x2="169.06" y2="209.25" xlink:href="#linear-gradient-45"/>
    <linearGradient id="linear-gradient-65" x1="171.91" y1="135.57" x2="171.91" y2="209.25" xlink:href="#linear-gradient-45"/>
    <linearGradient id="linear-gradient-66" x1="169.58" y1="135.57" x2="169.58" y2="209.25" xlink:href="#linear-gradient-45"/>
    <linearGradient id="linear-gradient-67" x1="169.58" y1="135.57" x2="169.58" y2="209.25" xlink:href="#linear-gradient-45"/>
    <linearGradient id="linear-gradient-68" x1="171.94" y1="135.57" x2="171.94" y2="209.25" xlink:href="#linear-gradient-45"/>
    <linearGradient id="linear-gradient-69" x1="167.23" y1="135.57" x2="167.23" y2="209.25" xlink:href="#linear-gradient-45"/>
    <linearGradient id="linear-gradient-70" x1="170.08" y1="135.57" x2="170.08" y2="209.25" xlink:href="#linear-gradient-45"/>
    <linearGradient id="linear-gradient-71" x1="170.77" y1="135.57" x2="170.77" y2="209.25" xlink:href="#linear-gradient-45"/>
    <linearGradient id="linear-gradient-72" x1="249.57" y1="135.57" x2="249.57" y2="209.25" xlink:href="#linear-gradient-45"/>
    <linearGradient id="linear-gradient-73" x1="248.57" y1="135.57" x2="248.57" y2="209.25" xlink:href="#linear-gradient-45"/>
    <linearGradient id="linear-gradient-74" x1="252.41" y1="135.57" x2="252.41" y2="209.25" xlink:href="#linear-gradient-45"/>
    <linearGradient id="linear-gradient-75" x1="253.81" y1="135.57" x2="253.81" y2="209.25" xlink:href="#linear-gradient-45"/>
    <linearGradient id="linear-gradient-76" x1="250.9" y1="135.57" x2="250.9" y2="209.25" xlink:href="#linear-gradient-45"/>
    <linearGradient id="linear-gradient-77" x1="253.74" y1="135.57" x2="253.74" y2="209.25" xlink:href="#linear-gradient-45"/>
    <linearGradient id="linear-gradient-78" x1="251.41" y1="135.57" x2="251.41" y2="209.25" xlink:href="#linear-gradient-45"/>
    <linearGradient id="linear-gradient-79" x1="251.41" y1="135.57" x2="251.41" y2="209.25" xlink:href="#linear-gradient-45"/>
    <linearGradient id="linear-gradient-80" x1="253.77" y1="135.57" x2="253.77" y2="209.25" xlink:href="#linear-gradient-45"/>
    <linearGradient id="linear-gradient-81" x1="249.07" y1="135.57" x2="249.07" y2="209.25" xlink:href="#linear-gradient-45"/>
    <linearGradient id="linear-gradient-82" x1="251.91" y1="135.57" x2="251.91" y2="209.25" xlink:href="#linear-gradient-45"/>
    <linearGradient id="linear-gradient-83" x1="252.6" y1="135.57" x2="252.6" y2="209.25" xlink:href="#linear-gradient-45"/>
    <linearGradient id="linear-gradient-84" x1="-13.32" y1="339.09" x2="516.7" y2="339.09" gradientUnits="userSpaceOnUse">
      <stop offset=".14" stop-color="#c7e5cc"/>
      <stop offset=".68" stop-color="#b6b974"/>
    </linearGradient>
    <linearGradient id="linear-gradient-85" x1="-13.32" y1="344.44" x2="516.7" y2="344.44" xlink:href="#linear-gradient-84"/>
    <linearGradient id="linear-gradient-86" x1="-13.32" y1="344.44" x2="516.7" y2="344.44" xlink:href="#linear-gradient-84"/>
    <linearGradient id="linear-gradient-87" x1="-13.32" y1="344.44" x2="516.7" y2="344.44" xlink:href="#linear-gradient-84"/>
    <linearGradient id="linear-gradient-88" x1="-13.32" y1="344.44" x2="516.7" y2="344.44" xlink:href="#linear-gradient-84"/>
    <linearGradient id="linear-gradient-89" x1="-13.32" x2="516.7" xlink:href="#linear-gradient-84"/>
    <linearGradient id="linear-gradient-90" x1="-13.32" y1="344.44" x2="516.7" y2="344.44" xlink:href="#linear-gradient-84"/>
    <linearGradient id="linear-gradient-91" x1="-13.32" y1="344.44" x2="516.7" y2="344.44" xlink:href="#linear-gradient-84"/>
    <linearGradient id="linear-gradient-92" x1="-13.32" y1="344.44" x2="516.7" y2="344.44" xlink:href="#linear-gradient-84"/>
    <linearGradient id="linear-gradient-93" x1="-13.32" y1="344.44" x2="516.7" y2="344.44" xlink:href="#linear-gradient-84"/>
    <linearGradient id="linear-gradient-94" x1="-13.32" y1="344.44" x2="516.7" y2="344.44" xlink:href="#linear-gradient-84"/>
    <linearGradient id="linear-gradient-95" x1="54.84" y1="387.28" x2="314.21" y2="387.28" xlink:href="#linear-gradient-84"/>
    <linearGradient id="linear-gradient-96" x1="54.84" y1="390.91" x2="314.22" y2="390.91" xlink:href="#linear-gradient-84"/>
    <linearGradient id="linear-gradient-97" x1="54.84" y1="394.54" x2="314.22" y2="394.54" xlink:href="#linear-gradient-84"/>
    <linearGradient id="linear-gradient-98" x1="54.84" y1="390.91" x2="314.22" y2="390.91" xlink:href="#linear-gradient-84"/>
    <linearGradient id="linear-gradient-99" x1="54.84" y1="390.91" x2="314.22" y2="390.91" xlink:href="#linear-gradient-84"/>
    <linearGradient id="linear-gradient-100" x1="54.84" y1="387.28" x2="314.22" y2="387.28" xlink:href="#linear-gradient-84"/>
    <linearGradient id="linear-gradient-101" x1="54.84" y1="390.9" x2="314.22" y2="390.9" xlink:href="#linear-gradient-84"/>
    <linearGradient id="linear-gradient-102" x1="54.84" y1="390.91" x2="314.21" y2="390.91" xlink:href="#linear-gradient-84"/>
    <linearGradient id="linear-gradient-103" x1="54.84" y1="387.28" x2="314.21" y2="387.28" xlink:href="#linear-gradient-84"/>
    <linearGradient id="linear-gradient-104" x1="54.84" y1="390.91" x2="314.22" y2="390.91" xlink:href="#linear-gradient-84"/>
    <linearGradient id="linear-gradient-105" x1="54.84" y1="387.28" x2="314.21" y2="387.28" xlink:href="#linear-gradient-84"/>
  </defs>
  <g>
    <path class="cls-100" d="M29.99,73.4s-13.37-30.06,16.08-59.74c-.19,7.66-.19,34.85-16.08,59.74Z"/>
    <path class="cls-14" d="M28.44,99.45s-19.37-8.23-9.69-41.94c.39,0,11.04,9.38,9.69,41.94Z"/>
    <path class="cls-48" d="M13.92,92.55s-11.23,21.45,15.5,32.55c.26,0-2.2-23.62-15.5-32.55Z"/>
    <path class="cls-39" d="M14.3,121.91s-7.1,23.11,18.98,33.19c.13-.13-2.84-24.51-18.98-33.19Z"/>
    <path class="cls-50" d="M14.82,156s-2.58,27.83,31.9,31.28c.26,0-12.53-27.7-31.9-31.28Z"/>
    <path class="cls-84" d="M28.64,192s-4,26.68,35.77,24.26c.13.13-15.11-20.68-35.77-24.26Z"/>
    <path class="cls-76" d="M45.68,226.6s21.44-7.02,42.62,13.28c.13.13-28.41,13.02-42.62-13.28Z"/>
    <path class="cls-63" d="M86.62,235.91s-22.21-16.85-10.59-42.89c.13.26,16.27,15.32,10.59,42.89Z"/>
    <path class="cls-77" d="M64.41,211.02s-19.24-16.98-4.13-43.66c.39.13,13.56,12,4.13,43.66Z"/>
    <path class="cls-22" d="M46.47,180.51s-14.21-26.04,2.44-38.81c-.13-.13,13.05,15.38-2.44,38.81Z"/>
    <path class="cls-80" d="M34.06,149.62s-6.71-24.64,12.66-33.57c.13,0,6.32,18.26-12.66,33.57Z"/>
    <path class="cls-23" d="M30.75,120.51s-.02-.22-.05-.61c-.27-4.03-1.02-26.83,16.02-33.22,1.03,9.83,2.28,23.11-15.97,33.83Z"/>
    <path class="cls-3" d="M30.61,91.91s-1.71-21.96,18.18-34.4c.26-.06,3.16,20.87-18.18,34.4Z"/>
    <path class="cls-69" d="M95.66,219.51s-4.84,24.7,16.66,34.85c.39.19,1.74-28.34-16.66-34.85Z"/>
    <path class="cls-2" d="M116.77,258.57c.32-.22-25.18-12.64-44.94-4.21.39-.19,19.31,21.51,44.94,4.21Z"/>
    <path class="cls-99" d="M117.87,236.94s20.92,5.11,22.86,30.64c.13,0-26.86-8.04-22.86-30.64Z"/>
    <path class="cls-74" d="M95.66,274.6s9.04-12.51,49.2-3.96c.26,0-16.79,23.87-49.2,3.96Z"/>
    <path class="cls-105" d="M134.27,284.55s7.49-10.85,41.19-6.13c-.13-.13-2.07,19.91-41.19,6.13Z"/>
    <path class="cls-81" d="M174.82,275.09s-27.89-1.87-28.93-23.65c.13-.2,25.05,4.35,28.93,23.65Z"/>
  </g>
  <g>
    <path class="cls-72" d="M349.37,73.4s13.37-30.06-16.08-59.74c.19,7.66.19,34.85,16.08,59.74Z"/>
    <path class="cls-88" d="M350.92,99.45s19.37-8.23,9.69-41.94c-.39,0-11.04,9.38-9.69,41.94Z"/>
    <path class="cls-53" d="M365.45,92.55s11.23,21.45-15.5,32.55c-.26,0,2.2-23.62,15.5-32.55Z"/>
    <path class="cls-101" d="M365.06,121.91s7.1,23.11-18.98,33.19c-.13-.13,2.84-24.51,18.98-33.19Z"/>
    <path class="cls-54" d="M364.54,156s2.58,27.83-31.9,31.28c-.26,0,12.53-27.7,31.9-31.28Z"/>
    <path class="cls-20" d="M350.73,192s4,26.68-35.77,24.26c-.13.13,15.11-20.68,35.77-24.26Z"/>
    <path class="cls-35" d="M333.68,226.6s-21.44-7.02-42.62,13.28c-.13.13,28.41,13.02,42.62-13.28Z"/>
    <path class="cls-25" d="M292.74,235.91s22.21-16.85,10.59-42.89c-.13.26-16.27,15.32-10.59,42.89Z"/>
    <path class="cls-4" d="M314.95,211.02s19.24-16.98,4.13-43.66c-.39.13-13.56,12-4.13,43.66Z"/>
    <path class="cls-71" d="M332.9,180.51s14.21-26.04-2.44-38.81c.13-.13-13.05,15.38,2.44,38.81Z"/>
    <path class="cls-41" d="M345.3,149.62s6.71-24.64-12.66-33.57c-.13,0-6.32,18.26,12.66,33.57Z"/>
    <path class="cls-102" d="M348.61,120.51s.02-.22.05-.61c.27-4.03,1.02-26.83-16.02-33.22-1.03,9.83-2.28,23.11,15.97,33.83Z"/>
    <path class="cls-96" d="M348.76,91.91s1.71-21.96-18.18-34.4c-.26-.06-3.16,20.87,18.18,34.4Z"/>
    <path class="cls-59" d="M283.7,219.51s4.84,24.7-16.66,34.85c-.39.19-1.74-28.34,16.66-34.85Z"/>
    <path class="cls-49" d="M262.59,258.57c-.32-.22,25.18-12.64,44.94-4.21-.39-.19-19.31,21.51-44.94,4.21Z"/>
    <path class="cls-40" d="M261.49,236.94s-20.92,5.11-22.86,30.64c-.13,0,26.86-8.04,22.86-30.64Z"/>
    <path class="cls-87" d="M283.7,274.6s-9.04-12.51-49.2-3.96c-.26,0,16.79,23.87,49.2,3.96Z"/>
    <path class="cls-27" d="M245.09,284.55s-7.49-10.85-41.19-6.13c.13-.13,2.07,19.91,41.19,6.13Z"/>
    <path class="cls-51" d="M204.54,275.09s27.89-1.87,28.93-23.65c-.13-.2-25.05,4.35-28.93,23.65Z"/>
  </g>
  <polygon class="cls-30" points="90.24 102.13 79.65 86.3 123.81 52.6 123.81 7.91 152.74 7.91 152.74 29.11 189.54 0 295.56 88.09 284.46 102.13 187.61 22.21 90.24 102.13"/>
  <rect class="cls-24" x="171.79" y="56.17" width="12.78" height="12.64"/>
  <rect class="cls-98" x="190.38" y="56.17" width="12.78" height="12.64"/>
  <rect class="cls-8" x="171.79" y="75.51" width="12.78" height="12.64"/>
  <rect class="cls-19" x="190.38" y="75.51" width="12.78" height="12.64"/>
  <path class="cls-45" d="M192.25,123.32v13.28h71.8v58.04c-16.12,17.75-38.47,28.76-63.19,28.76-49.11,0-88.93-43.42-88.93-96.98,0-10.29,1.47-20.2,4.2-29.5l-19.81,14.52c-.43,4.14-.66,8.34-.66,12.59,0,62.21,47.29,112.65,105.63,112.65,30.35,0,57.7-13.65,76.97-35.51v-77.85h-86.01Z"/>
  <g>
    <path class="cls-89" d="M174.76,150.44c.24-.66.68-1.15,1.33-1.48.88-.47,1.81-.7,2.79-.7h1.47v-1.13h-17.77v1.13h1.47c.98,0,1.91.24,2.79.73.65.37,1.08.8,1.29,1.31.2.51.33,1.43.37,2.76h5.93c.04-1.25.15-2.13.33-2.62Z"/>
    <path class="cls-9" d="M149.23,166.3v-11.82c0-2.03.12-3.38.37-4.04.24-.66.68-1.15,1.32-1.48.88-.47,1.81-.7,2.79-.7h1.5v-1.13h-17.8v1.13h1.47c.98,0,1.92.24,2.82.73.63.37,1.05.8,1.26,1.31.26.67.4,2.06.4,4.17v26.66c0,2.48-.24,4.04-.74,4.69-.78,1-2.02,1.49-3.74,1.49h-1.47v1.13h17.8v-1.13h-1.5c-.98,0-1.91-.24-2.79-.73-.65-.37-1.08-.8-1.29-1.31-.27-.67-.4-2.05-.4-4.14v-12.58h12.78v-2.25h-12.78Z"/>
    <path class="cls-34" d="M176.07,186.59c-.63-.37-1.05-.8-1.26-1.31-.16-.4-.27-1.06-.33-1.96h-6.04c-.11,1.24-.34,2.08-.68,2.51-.78,1-2.01,1.49-3.71,1.49h-1.47v1.13h17.77v-1.13h-1.47c-.98,0-1.92-.24-2.82-.73Z"/>
    <path class="cls-94" d="M190.79,158.41c-.88-1.04-1.32-2.18-1.32-3.44,0-1.65.69-3.11,2.08-4.4,1.39-1.29,3.15-1.93,5.27-1.93,1.88,0,3.7.48,5.45,1.43,1.76.96,3.11,2.24,4.06,3.87.95,1.62,1.61,3.81,1.98,6.55h1.13v-14.29h-1.13c-.2.96-.48,1.59-.81,1.9-.34.31-.77.47-1.3.47-.47,0-1.28-.25-2.42-.76-2.47-1.08-4.81-1.61-7.02-1.61-3.53,0-6.44,1.07-8.73,3.21-2.29,2.14-3.43,4.7-3.43,7.66,0,1.71.39,3.27,1.16,4.69.5.92,1.17,1.78,1.97,2.6l4.04-4.97c-.39-.34-.73-.67-.98-.98Z"/>
    <path class="cls-47" d="M206.34,178.14c.27.71.41,1.41.41,2.11,0,1.83-.74,3.41-2.22,4.75-1.48,1.34-3.5,2.01-6.05,2.01-2.21,0-4.23-.49-6.08-1.46-1.85-.98-3.22-2.2-4.12-3.67-.9-1.47-1.61-3.69-2.14-6.66h-1.13v14.17h1.13c.14-.95.36-1.58.66-1.89.3-.3.7-.46,1.21-.46s1.79.32,3.78.96c1.99.64,3.3,1.01,3.94,1.11,1.06.18,2.2.27,3.4.27,3.84,0,6.98-1.13,9.42-3.4,2.44-2.26,3.66-4.96,3.66-8.09,0-1.57-.36-3.08-1.06-4.52l-4.81,4.75Z"/>
    <path class="cls-75" d="M254.98,150.44c.24-.66.68-1.15,1.33-1.48.88-.47,1.81-.7,2.79-.7h1.47v-1.13h-17.77v1.13h1.47c.98,0,1.91.24,2.79.73.65.37,1.08.8,1.29,1.31.25.63.38,1.91.4,3.81h5.89c.01-1.83.13-3.06.35-3.68Z"/>
    <path class="cls-62" d="M229.44,166.3v-11.82c0-2.03.12-3.38.37-4.04.24-.66.68-1.15,1.32-1.48.88-.47,1.81-.7,2.79-.7h1.5v-1.13h-17.8v1.13h1.47c.98,0,1.92.24,2.82.73.63.37,1.05.8,1.26,1.31.26.67.4,2.06.4,4.17v26.66c0,2.48-.24,4.04-.74,4.69-.78,1-2.02,1.49-3.74,1.49h-1.47v1.13h17.8v-1.13h-1.5c-.98,0-1.91-.24-2.79-.73-.65-.37-1.08-.8-1.29-1.31-.27-.67-.4-2.05-.4-4.14v-12.58h14.79v-2.25h-14.79Z"/>
    <path class="cls-32" d="M256.28,186.59c-.63-.37-1.05-.8-1.26-1.31-.1-.26-.18-.63-.25-1.1h-6.23c-.13.77-.32,1.32-.57,1.65-.78,1-2.01,1.49-3.71,1.49h-1.47v1.13h17.77v-1.13h-1.47c-.98,0-1.92-.24-2.82-.73Z"/>
    <g>
      <path class="cls-7" d="M190.83,163.21s.58,2.36,3.49,2.68c.13-.13-2.52-2.74-3.49-2.68Z"/>
      <path class="cls-56" d="M194.32,161.87s2.55,1.63,2.45,5.36c-.05,0-2.19-2.06-2.45-5.36Z"/>
      <path class="cls-29" d="M192.85,168.81s1.55,1.46,6.59.97c.19-.06-1.84-1.45-6.59-.97Z"/>
      <path class="cls-18" d="M195.55,166.8l4.71,3.09s-3.95-1.75-4.71-3.09Z"/>
      <path class="cls-65" d="M201.37,164.98s1.5,3.93.44,6.56c-.1-.1-1.21-3.93-.44-6.56Z"/>
      <path class="cls-33" d="M198.23,171.54s4.5.62,5.76,3.21c.1-.05-3.73.1-5.76-3.21Z"/>
      <path class="cls-79" d="M205.15,177.43s1.74-2.92.87-5.89c0-.1-2.32,4.64-.87,5.89Z"/>
    </g>
    <g>
      <path class="cls-11" d="M165.1,175.85s-.15,3.54,5.28,5.22v-1.05s-4.75-2.25-5.28-4.16Z"/>
      <path class="cls-1" d="M169.32,173.12v-3.02s-3.63-.34-5.13-4.21c-.05,0-.24,4.79,5.13,7.23Z"/>
      <path class="cls-70" d="M170.04,177s3.16-3.11,2.07-7.49c-.13.09-.74,3.66-3.28,4.68-.08,1.4.37,2.81,1.21,2.81Z"/>
      <path class="cls-103" d="M169.12,168.43s0-2.63,5.71-6.08c0,0-1.03,5.46-5.71,6.08Z"/>
      <path class="cls-17" d="M167.28,156.8s-.47,4.69,3.3,8.19l.28-2.44s-2.71-2.68-3.58-5.74Z"/>
      <polygon class="cls-5" points="172.34 154.5 172.34 159.81 171.47 159.81 171.47 155.98 172.34 154.5"/>
      <rect class="cls-64" x="169.32" y="175.85" width=".53" height="4.21"/>
      <rect class="cls-73" x="169.32" y="170.11" width=".53" height="4.64"/>
      <path class="cls-26" d="M170.87,179.81l2.15-3.13s-1.9.64-2.15,3.13Z"/>
      <path class="cls-6" d="M165.91,164.98c0-.33,2.2,4.1,2.65,5.31,0,.26-2.65-2.97-2.65-5.31Z"/>
      <path class="cls-10" d="M169.58,156.8s1.54,4.31,1,6.41c-.09-.13-1.52-5.04-1-6.41Z"/>
      <rect class="cls-44" x="170.38" y="180.02" width=".77" height="3.69"/>
    </g>
    <g>
      <path class="cls-38" d="M246.93,175.85s-.15,3.54,5.28,5.22v-1.05s-4.75-2.25-5.28-4.16Z"/>
      <path class="cls-43" d="M251.15,173.12v-3.02s-3.63-.34-5.13-4.21c-.05,0-.24,4.79,5.13,7.23Z"/>
      <path class="cls-36" d="M251.87,177s3.16-3.11,2.07-7.49c-.13.09-.74,3.66-3.28,4.68-.08,1.4.37,2.81,1.21,2.81Z"/>
      <path class="cls-28" d="M250.95,168.43s0-2.63,5.71-6.08c0,0-1.03,5.46-5.71,6.08Z"/>
      <path class="cls-42" d="M249.11,156.8s-.47,4.69,3.3,8.19l.28-2.44s-2.71-2.68-3.58-5.74Z"/>
      <polygon class="cls-66" points="254.17 154.5 254.17 159.81 253.3 159.81 253.3 155.98 254.17 154.5"/>
      <rect class="cls-61" x="251.15" y="175.85" width=".53" height="4.21"/>
      <rect class="cls-60" x="251.15" y="170.11" width=".53" height="4.64"/>
      <path class="cls-83" d="M252.7,179.81l2.15-3.13s-1.9.64-2.15,3.13Z"/>
      <path class="cls-92" d="M247.74,164.98c0-.33,2.2,4.1,2.65,5.31,0,.26-2.65-2.97-2.65-5.31Z"/>
      <path class="cls-21" d="M251.41,156.8s1.54,4.31,1,6.41c-.09-.13-1.52-5.04-1-6.41Z"/>
      <rect class="cls-85" x="252.21" y="180.02" width=".77" height="3.69"/>
    </g>
  </g>
  <g>
    <path class="cls-93" d="M17.19,342.46v-7.13h20.04v23.9h-18.23c-3.36,0-5.95-.27-7.75-.82-1.8-.55-3.49-1.45-5.06-2.71-2.07-1.64-3.61-3.79-4.65-6.43-1.03-2.64-1.55-5.8-1.55-9.47,0-7.11,1.55-12.36,4.65-15.76,3.1-3.4,7.88-5.1,14.35-5.1h18.23v6.94h-18.23c-3.33,0-5.75,1.08-7.28,3.23-1.53,2.16-2.29,5.59-2.29,10.31,0,4.4.76,7.59,2.28,9.57,1.52,1.97,3.95,2.96,7.29,2.96h9.54v-9.48h-11.35Z"/>
    <path class="cls-90" d="M43.42,329.65h13.13c3.07,0,5.22.55,6.46,1.66,1.23,1.11,1.85,3.04,1.85,5.8v4.93h-7.46v-3.81c0-1.15-.21-1.92-.62-2.32-.41-.39-1.35-.59-2.81-.59h-2.74v23.9h-7.81v-29.58Z"/>
    <path class="cls-97" d="M83.01,359.23c-4.9,0-8.6-1.25-11.12-3.74-2.51-2.49-3.77-6.17-3.77-11.03s1.26-8.54,3.78-11.05c2.52-2.5,6.22-3.76,11.1-3.76h11.4v6.17h-10.33c-2.83,0-4.74.4-5.72,1.21-.98.8-1.5,2.26-1.58,4.36h17.63v6.17h-17.63c.07,2.12.56,3.57,1.47,4.35.9.78,2.83,1.16,5.77,1.16h10.39v6.17h-11.4Z"/>
    <path class="cls-16" d="M112.59,359.23c-4.9,0-8.6-1.25-11.12-3.74-2.51-2.49-3.77-6.17-3.77-11.03s1.26-8.54,3.78-11.05c2.52-2.5,6.22-3.76,11.1-3.76h11.4v6.17h-10.33c-2.83,0-4.74.4-5.72,1.21-.98.8-1.5,2.26-1.58,4.36h17.63v6.17h-17.63c.07,2.12.56,3.57,1.47,4.35.9.78,2.83,1.16,5.77,1.16h10.39v6.17h-11.4Z"/>
    <path class="cls-68" d="M128.98,329.65h14.69c4.44,0,7.61.84,9.51,2.51,1.9,1.67,2.85,4.45,2.85,8.32v18.75h-7.81v-17.79c0-2.21-.34-3.65-1.03-4.3-.69-.66-2.06-.99-4.13-.99h-6.28v23.08h-7.81v-29.58Z"/>
    <path class="cls-31" d="M193.67,318.94v16.34h15.54v-16.34h8.47v40.3h-8.47v-16.83h-15.54v16.83h-8.47v-40.3h8.47Z"/>
    <path class="cls-58" d="M238.41,359.23c-4.9,0-8.6-1.25-11.12-3.74-2.51-2.49-3.77-6.17-3.77-11.03s1.26-8.54,3.78-11.05c2.52-2.5,6.22-3.76,11.1-3.76h11.4v6.17h-10.33c-2.83,0-4.74.4-5.72,1.21-.98.8-1.5,2.26-1.58,4.36h17.63v6.17h-17.63c.07,2.12.56,3.57,1.47,4.35.9.78,2.83,1.16,5.77,1.16h10.39v6.17h-11.4Z"/>
    <path class="cls-52" d="M255.41,329.65h16.01c4.04,0,7.08.93,9.13,2.78,2.05,1.85,3.07,4.61,3.07,8.27v18.53h-21c-2.94,0-5.2-.74-6.79-2.22-1.58-1.48-2.37-3.58-2.37-6.31,0-3.36.91-5.77,2.73-7.24,1.82-1.46,4.84-2.19,9.06-2.19h10.28v-.74c0-1.75-.52-2.99-1.55-3.7-1.03-.71-2.88-1.07-5.52-1.07h-13.05v-6.11ZM265.8,353.29h9.79v-6.11h-9.21c-1.83,0-3.09.25-3.78.74-.69.49-1.04,1.35-1.04,2.58,0,1.04.28,1.77.84,2.18.56.41,1.7.62,3.41.62Z"/>
    <path class="cls-57" d="M287.13,329.65h8.77l8.2,21,8.69-21h8.42l-13.13,29.58h-8.42l-12.53-29.58Z"/>
    <path class="cls-12" d="M337.87,359.23c-4.9,0-8.6-1.25-11.12-3.74-2.51-2.49-3.77-6.17-3.77-11.03s1.26-8.54,3.78-11.05c2.52-2.5,6.22-3.76,11.1-3.76h11.4v6.17h-10.33c-2.83,0-4.74.4-5.72,1.21-.98.8-1.5,2.26-1.58,4.36h17.63v6.17h-17.63c.07,2.12.56,3.57,1.47,4.35.9.78,2.83,1.16,5.77,1.16h10.39v6.17h-11.4Z"/>
    <path class="cls-55" d="M354.26,329.65h14.69c4.44,0,7.61.84,9.51,2.51,1.9,1.67,2.85,4.45,2.85,8.32v18.75h-7.81v-17.79c0-2.21-.34-3.65-1.03-4.3-.69-.66-2.06-.99-4.13-.99h-6.28v23.08h-7.81v-29.58Z"/>
  </g>
  <g>
    <path class="cls-13" d="M94.93,378.5h-14.01c-1.5,0-2.61.28-3.31.85-.7.57-1.05,1.47-1.05,2.71,0,.99.3,1.73.9,2.23.6.5,1.49.74,2.68.74h7.5c3.11,0,5.31.59,6.63,1.78,1.31,1.19,1.97,3.17,1.97,5.94s-.76,4.87-2.27,6.19c-1.52,1.32-3.9,1.98-7.15,1.98h-15.09v-4.86h14.19c1.61,0,2.75-.24,3.41-.71.66-.48.99-1.27.99-2.37s-.3-1.95-.91-2.43c-.61-.48-1.64-.72-3.11-.72h-6.69c-3.11,0-5.38-.63-6.81-1.88-1.44-1.26-2.16-3.24-2.16-5.95,0-2.9.75-5.01,2.27-6.35,1.51-1.34,3.91-2.01,7.2-2.01h14.84v4.86Z"/>
    <path class="cls-46" d="M117.87,400.92h-9.85c-2.9,0-4.99-.58-6.28-1.75-1.29-1.16-1.94-3.03-1.94-5.59v-12.7h5.21v12.27c0,1.34.23,2.23.69,2.67.46.45,1.37.67,2.74.67h4.2v-15.61h5.23v20.03Z"/>
    <path class="cls-37" d="M122.6,380.89h10.07c3.03,0,5.4.9,7.1,2.71,1.7,1.81,2.55,4.33,2.55,7.56,0,1.32-.18,2.54-.53,3.65-.35,1.11-.89,2.12-1.61,3.04-.86,1.1-1.88,1.89-3.08,2.37-1.2.48-2.79.71-4.77.71h-4.49v7.26h-5.23v-27.29ZM127.82,385.22v11.42h3.19c2.12,0,3.61-.45,4.49-1.36.88-.9,1.32-2.41,1.32-4.51s-.4-3.46-1.21-4.3c-.81-.84-2.21-1.25-4.2-1.25h-3.59Z"/>
    <path class="cls-91" d="M154.32,400.92c-3.28,0-5.75-.84-7.44-2.53-1.68-1.69-2.52-4.18-2.52-7.47s.84-5.79,2.53-7.48c1.69-1.7,4.16-2.54,7.43-2.54h7.63v4.18h-6.91c-1.89,0-3.17.27-3.82.82s-1.01,1.53-1.05,2.95h11.79v4.18h-11.79c.05,1.44.38,2.42.98,2.94.61.53,1.89.79,3.86.79h6.95v4.18h-7.63Z"/>
    <path class="cls-104" d="M165.29,380.89h8.78c2.05,0,3.49.37,4.32,1.12.83.75,1.24,2.06,1.24,3.93v3.34h-4.99v-2.58c0-.78-.14-1.3-.41-1.57-.28-.27-.9-.4-1.88-.4h-1.83v16.19h-5.23v-20.03Z"/>
    <path class="cls-15" d="M203.69,373.63v11.06h10.4v-11.06h5.67v27.29h-5.67v-11.4h-10.4v11.4h-5.67v-27.29h5.67Z"/>
    <path class="cls-82" d="M244.47,390.92c0,3.14-.94,5.65-2.83,7.53-1.89,1.88-4.43,2.81-7.64,2.81s-5.76-.94-7.67-2.82c-1.91-1.88-2.86-4.39-2.86-7.52s.95-5.66,2.86-7.55c1.91-1.89,4.46-2.83,7.67-2.83s5.72.94,7.62,2.83c1.9,1.89,2.85,4.4,2.85,7.55ZM228.96,390.92c0,1.91.44,3.39,1.32,4.46.88,1.06,2.11,1.6,3.69,1.6s2.79-.53,3.69-1.6c.89-1.06,1.34-2.55,1.34-4.46s-.44-3.39-1.33-4.45c-.89-1.06-2.12-1.59-3.7-1.59s-2.79.53-3.68,1.6c-.89,1.06-1.33,2.54-1.33,4.44Z"/>
    <path class="cls-95" d="M247.35,396.75h11.02c.98,0,1.69-.15,2.14-.46.45-.31.67-.8.67-1.49s-.23-1.18-.68-1.49c-.45-.32-1.16-.47-2.13-.47h-4.51c-2.68,0-4.49-.41-5.43-1.24-.94-.83-1.41-2.3-1.41-4.42s.57-3.74,1.71-4.75c1.14-1.01,2.9-1.52,5.28-1.52h11.22v4.18h-9.22c-1.5,0-2.48.13-2.93.4-.45.27-.68.74-.68,1.42,0,.62.2,1.07.6,1.36.4.29,1.02.44,1.88.44h4.73c2.16,0,3.81.51,4.95,1.53,1.14,1.02,1.71,2.5,1.71,4.43s-.5,3.37-1.51,4.53c-1.01,1.16-2.31,1.75-3.9,1.75h-13.5v-4.18Z"/>
    <path class="cls-67" d="M268.02,380.89h3.69v-7.26h5.23v7.26h5.52v3.99h-5.52v8.09c0,1.49.25,2.52.75,3.09.5.58,1.38.86,2.62.86h2.15v3.99h-4.77c-1.93,0-3.41-.54-4.44-1.62-1.03-1.08-1.54-2.63-1.54-4.65v-9.77h-3.69v-3.99Z"/>
    <path class="cls-78" d="M294.35,400.92c-3.28,0-5.75-.84-7.44-2.53-1.68-1.69-2.52-4.18-2.52-7.47s.84-5.79,2.53-7.48c1.69-1.7,4.16-2.54,7.43-2.54h7.63v4.18h-6.91c-1.89,0-3.17.27-3.82.82s-1.01,1.53-1.05,2.95h11.79v4.18h-11.79c.05,1.44.38,2.42.98,2.94.61.53,1.89.79,3.86.79h6.95v4.18h-7.63Z"/>
    <path class="cls-86" d="M310.69,400.92h-5.45v-27.29h5.45v27.29Z"/>
  </g>
</svg>